<svg xmlns="http://www.w3.org/2000/svg" width="1440" height="900"><path d="M720 507l149 23-140-169z" fill="#4f50a8" stroke="#4f50a8" stroke-width="1.51"/><path d="M869 530l64-142-204-27z" fill="#4d4da6" stroke="#4d4da6" stroke-width="1.51"/><path d="M720 507l32 195 117-172z" fill="#4c4ba7" stroke="#4c4ba7" stroke-width="1.51"/><path d="M496 344l79 236 145-73z" fill="#4b4ca1" stroke="#4b4ca1" stroke-width="1.51"/><path d="M720 507l-145 73 177 122z" fill="#4b4ba5" stroke="#4b4ba5" stroke-width="1.51"/><path d="M879 143l-150 11v207z" fill="#434495" stroke="#434495" stroke-width="1.51"/><path d="M1120 535l-53-209-134 62z" fill="#4846a4" stroke="#4846a4" stroke-width="1.51"/><path d="M1120 535L933 388l-64 142z" fill="#4a49a6" stroke="#4a49a6" stroke-width="1.51"/><path d="M752 702l186-7-69-165z" fill="#4846a6" stroke="#4846a6" stroke-width="1.51"/><path d="M729 361l-233-17 224 163z" fill="#4b4da0" stroke="#4b4da0" stroke-width="1.51"/><path d="M879 143L729 361l204 27z" fill="#45469b" stroke="#45469b" stroke-width="1.51"/><path d="M1052 191l-173-48 54 245z" fill="#414196" stroke="#414196" stroke-width="1.51"/><path d="M525 172l-29 172 233 17z" fill="#434593" stroke="#434593" stroke-width="1.51"/><path d="M938 695l182-160-251-5z" fill="#4745a6" stroke="#4745a6" stroke-width="1.51"/><path d="M1067 326l-15-135-119 197z" fill="#42429a" stroke="#42429a" stroke-width="1.51"/><path d="M1290 170l-238 21 15 135z" fill="#3c3a94" stroke="#3c3a94" stroke-width="1.51"/><path d="M729 154l-204 18 204 189z" fill="#434493" stroke="#434493" stroke-width="1.51"/><path d="M575 580l-20 155 197-33z" fill="#4645a1" stroke="#4645a1" stroke-width="1.51"/><path d="M1108 897l29-159-199-43z" fill="#3e3aa4" stroke="#3e3aa4" stroke-width="1.51"/><path d="M387 695l168 40 20-155z" fill="#42419a" stroke="#42419a" stroke-width="1.51"/><path d="M496 344L373 525l202 55z" fill="#46479a" stroke="#46479a" stroke-width="1.51"/><path d="M384 197l-2 205 114-58z" fill="#3e408c" stroke="#3e408c" stroke-width="1.51"/><path d="M382 402l-9 123 123-181z" fill="#434594" stroke="#434594" stroke-width="1.51"/><path d="M938 695l199 43-17-203z" fill="#433fa5" stroke="#433fa5" stroke-width="1.51"/><path d="M753 889l185-194-186 7z" fill="#4442a5" stroke="#4442a5" stroke-width="1.51"/><path d="M555 735l198 154-1-187z" fill="#4543a4" stroke="#4543a4" stroke-width="1.51"/><path d="M753 889l166 23 19-217z" fill="#413ea4" stroke="#413ea4" stroke-width="1.51"/><path d="M137 578l250 117-14-170z" fill="#3c3c8f" stroke="#3c3c8f" stroke-width="1.51"/><path d="M525 172l-141 25 112 147z" fill="#3b3d89" stroke="#3b3d89" stroke-width="1.51"/><path d="M373 525l14 170 188-115z" fill="#424197" stroke="#424197" stroke-width="1.51"/><path d="M555 735l-21 172 219-18z" fill="#403e9f" stroke="#403e9f" stroke-width="1.51"/><path d="M879 143L731-57l-2 211z" fill="#3c3d8a" stroke="#3c3d8a" stroke-width="1.51"/><path d="M729 154L574-57l-49 229z" fill="#3a3c85" stroke="#3a3c85" stroke-width="1.51"/><path d="M525 172L304-49l80 246z" fill="#33347b" stroke="#33347b" stroke-width="1.51"/><path d="M946-46L731-57l148 200z" fill="#373885" stroke="#373885" stroke-width="1.51"/><path d="M1120 535l203-149-256-60z" fill="#4442a3" stroke="#4442a3" stroke-width="1.51"/><path d="M1137 738l159-185-176-18z" fill="#413ea5" stroke="#413ea5" stroke-width="1.51"/><path d="M1065 0L946-46l-67 189z" fill="#363586" stroke="#363586" stroke-width="1.51"/><path d="M1065 0L879 143l173 48z" fill="#39388c" stroke="#39388c" stroke-width="1.51"/><path d="M1244 16L1065 0l-13 191z" fill="#343388" stroke="#343388" stroke-width="1.51"/><path d="M1296 553l27-167-203 149z" fill="#4441a5" stroke="#4441a5" stroke-width="1.51"/><path d="M387 695l147 212 21-172z" fill="#3e3c98" stroke="#3e3c98" stroke-width="1.51"/><path d="M753 889l114 172 52-149z" fill="#3d39a4" stroke="#3d39a4" stroke-width="1.51"/><path d="M1137 738l112 14 47-199z" fill="#3d39a3" stroke="#3d39a3" stroke-width="1.51"/><path d="M1237 911l12-159-112-14z" fill="#3934a3" stroke="#3934a3" stroke-width="1.51"/><path d="M731-57H574l155 211z" fill="#383a83" stroke="#383a83" stroke-width="1.51"/><path d="M919 912l189-15-170-202z" fill="#3e3aa4" stroke="#3e3aa4" stroke-width="1.51"/><path d="M1323 386l-33-216-223 156z" fill="#3d3b98" stroke="#3d3b98" stroke-width="1.51"/><path d="M1078-183l-166-19 34 156z" fill="#2c2c78" stroke="#2c2c78" stroke-width="1.51"/><path d="M1290 170l-46-154-192 175z" fill="#35338c" stroke="#35338c" stroke-width="1.51"/><path d="M919 912l145 239 44-254z" fill="#3732a3" stroke="#3732a3" stroke-width="1.51"/><path d="M751 1147l116-86-114-172z" fill="#3c38a3" stroke="#3c38a3" stroke-width="1.51"/><path d="M1108 897l129 14-100-173z" fill="#3934a3" stroke="#3934a3" stroke-width="1.51"/><path d="M1453 553l-130-167-27 167z" fill="#403da4" stroke="#403da4" stroke-width="1.51"/><path d="M1246 1064l-9-153-129-14z" fill="#332ea2" stroke="#332ea2" stroke-width="1.51"/><path d="M731-57l32-142L574-57z" fill="#33357b" stroke="#33357b" stroke-width="1.51"/><path d="M912-202l-149 3-32 142z" fill="#303178" stroke="#303178" stroke-width="1.51"/><path d="M912-202L731-57l215 11z" fill="#31327c" stroke="#31327c" stroke-width="1.51"/><path d="M1290 170l218-184-264 30z" fill="#2e2b86" stroke="#2e2b86" stroke-width="1.51"/><path d="M1323 386l120-36-153-180z" fill="#3a3799" stroke="#3a3799" stroke-width="1.51"/><path d="M1453 553l-10-203-120 36z" fill="#403ca3" stroke="#403ca3" stroke-width="1.51"/><path d="M1453 553h-157l-47 199z" fill="#3c38a3" stroke="#3c38a3" stroke-width="1.51"/><path d="M1078-183L946-46l119 46z" fill="#2e2e7d" stroke="#2e2e7d" stroke-width="1.51"/><path d="M1511 739l-58-186-204 199z" fill="#3933a2" stroke="#3933a2" stroke-width="1.51"/><path d="M1244 16l-166-199-13 183z" fill="#2d2c7e" stroke="#2d2c7e" stroke-width="1.51"/><path d="M534 907l217 240 2-258z" fill="#3e3aa2" stroke="#3e3aa2" stroke-width="1.51"/><path d="M387 695l-85 200 232 12z" fill="#393793" stroke="#393793" stroke-width="1.51"/><path d="M172 766l130 129 85-200z" fill="#36348d" stroke="#36348d" stroke-width="1.51"/><path d="M137 578l236-53 9-123z" fill="#3f408f" stroke="#3f408f" stroke-width="1.51"/><path d="M128 331l9 247 245-176z" fill="#3d3f8a" stroke="#3d3f8a" stroke-width="1.51"/><path d="M384 197L128 331l254 71z" fill="#393b85" stroke="#393b85" stroke-width="1.51"/><path d="M188 127l-60 204 256-134z" fill="#32347a" stroke="#32347a" stroke-width="1.51"/><path d="M304-49l221 221 49-229z" fill="#313378" stroke="#313378" stroke-width="1.51"/><path d="M304-49L188 127l196 70z" fill="#2e3073" stroke="#2e3073" stroke-width="1.51"/><path d="M504-211L304-49l270-8z" fill="#2b2d6e" stroke="#2b2d6e" stroke-width="1.51"/><path d="M867 1061l197 90-145-239z" fill="#3732a2" stroke="#3732a2" stroke-width="1.51"/><path d="M514 1106l237 41-217-240z" fill="#38349c" stroke="#38349c" stroke-width="1.51"/><path d="M137 578l35 188 215-71z" fill="#37368b" stroke="#37368b" stroke-width="1.51"/><path d="M912-202l-408-9 259 12z" fill="#2f3175" stroke="#2f3175" stroke-width="1.51"/><path d="M763-199l-259-12 70 154z" fill="#2e2f73" stroke="#2e2f73" stroke-width="1.51"/><path d="M302 895l212 211 20-199z" fill="#353295" stroke="#353295" stroke-width="1.51"/><path d="M356 1139l158-33-212-211z" fill="#302d90" stroke="#302d90" stroke-width="1.51"/><path d="M751 1147l313 4-197-90z" fill="#3630a2" stroke="#3630a2" stroke-width="1.51"/><path d="M1443 350l65-206-218 26z" fill="#353292" stroke="#353292" stroke-width="1.51"/><path d="M1244 16l37-230-203 31z" fill="#282779" stroke="#282779" stroke-width="1.51"/><path d="M1625 318l-117-174-65 206z" fill="#343196" stroke="#343196" stroke-width="1.51"/><path d="M1064 1151l182-87-138-167z" fill="#312ca1" stroke="#312ca1" stroke-width="1.51"/><path d="M1473 944l38-205-262 13z" fill="#332da1" stroke="#332da1" stroke-width="1.51"/><path d="M1453 553l172-235-182 32z" fill="#3c37a0" stroke="#3c37a0" stroke-width="1.51"/><path d="M1473 944l-224-192-12 159z" fill="#332da1" stroke="#332da1" stroke-width="1.51"/><path d="M152-186l10 144 142-7z" fill="#222461" stroke="#222461" stroke-width="1.51"/><path d="M304-49l-142 7 26 169z" fill="#27296a" stroke="#27296a" stroke-width="1.51"/><path d="M188 127l-201 84 141 120z" fill="#2e3073" stroke="#2e3073" stroke-width="1.51"/><path d="M1508-14l-227-200-37 230z" fill="#27257c" stroke="#27257c" stroke-width="1.51"/><path d="M1078-183l203-31-369 12z" fill="#262673" stroke="#262673" stroke-width="1.51"/><path d="M912-202l-613-32 205 23z" fill="#292b6c" stroke="#292b6c" stroke-width="1.51"/><path d="M-68 394l52 127 144-190z" fill="#34367d" stroke="#34367d" stroke-width="1.51"/><path d="M128 331L-16 521l153 57z" fill="#383984" stroke="#383984" stroke-width="1.51"/><path d="M137 578L-70 758l242 8z" fill="#313082" stroke="#313082" stroke-width="1.51"/><path d="M1508 144V-14l-218 184z" fill="#2d2b89" stroke="#2d2b89" stroke-width="1.51"/><path d="M1691 552l-66-234-172 235z" fill="#3b37a3" stroke="#3b37a3" stroke-width="1.51"/><path d="M-30 871l180 73 22-178z" fill="#2c2a81" stroke="#2c2a81" stroke-width="1.51"/><path d="M172 766l-22 178 152-49z" fill="#302e88" stroke="#302e88" stroke-width="1.51"/><path d="M173 1089l183 50-54-244z" fill="#2c298a" stroke="#2c298a" stroke-width="1.51"/><path d="M514 1106l-158 33 395 8z" fill="#332e98" stroke="#332e98" stroke-width="1.51"/><path d="M1614-36l-106 22v158z" fill="#262483" stroke="#262483" stroke-width="1.51"/><path d="M1246 1064l227-120-236-33z" fill="#2e29a1" stroke="#2e29a1" stroke-width="1.51"/><path d="M1511 739l180-187-238 1z" fill="#3631a2" stroke="#3631a2" stroke-width="1.51"/><path d="M1281-214l-982-20 613 32z" fill="#2c2d74" stroke="#2c2d74" stroke-width="1.51"/><path d="M504-211l-205-23 5 185z" fill="#242665" stroke="#242665" stroke-width="1.51"/><path d="M-45 5l32 206 201-84z" fill="#262868" stroke="#262868" stroke-width="1.51"/><path d="M-13 211l-55 183 196-63z" fill="#2f3175" stroke="#2f3175" stroke-width="1.51"/><path d="M-19 1150l192-61-23-145z" fill="#242280" stroke="#242280" stroke-width="1.51"/><path d="M1659 756l32-204-180 187z" fill="#322da1" stroke="#322da1" stroke-width="1.51"/><path d="M162-42L-45 5l233 122z" fill="#252665" stroke="#252665" stroke-width="1.51"/><path d="M299-234l-147 48L304-49z" fill="#21235f" stroke="#21235f" stroke-width="1.51"/><path d="M150 944l23 145 129-194z" fill="#2c2a87" stroke="#2c2a87" stroke-width="1.51"/><path d="M-70 758l207-180-153-57z" fill="#31317e" stroke="#31317e" stroke-width="1.51"/><path d="M1621 928l38-172-148-17z" fill="#2d28a0" stroke="#2d28a0" stroke-width="1.51"/><path d="M1473 944l148-16-110-189z" fill="#2c27a0" stroke="#2c27a0" stroke-width="1.51"/><path d="M1246 1064l191 42 36-162z" fill="#2824a0" stroke="#2824a0" stroke-width="1.51"/><path d="M1064 1151l373-45-191-42z" fill="#2a25a0" stroke="#2a25a0" stroke-width="1.51"/><path d="M-242 564l172 194 54-237z" fill="#2c2d78" stroke="#2c2d78" stroke-width="1.51"/><path d="M1625 318l66-180-183 6z" fill="#2e2a8f" stroke="#2e2a8f" stroke-width="1.51"/><path d="M1508-14l6-191-233-9z" fill="#201f76" stroke="#201f76" stroke-width="1.51"/><path d="M1691 552V138l-66 180z" fill="#332f9a" stroke="#332f9a" stroke-width="1.51"/><path d="M1691 138l-77-174-106 180z" fill="#272586" stroke="#272586" stroke-width="1.51"/><path d="M-70 758l40 113 202-105z" fill="#2c2a7e" stroke="#2c2a7e" stroke-width="1.51"/><path d="M1660 1084l-39-156-148 16z" fill="#23209f" stroke="#23209f" stroke-width="1.51"/><path d="M-9-164L-45 5l207-47z" fill="#1d205a" stroke="#1d205a" stroke-width="1.51"/><path d="M-13 211l-191-21 136 204z" fill="#292b6c" stroke="#292b6c" stroke-width="1.51"/><path d="M1614-36l-100-169-6 191z" fill="#201e7a" stroke="#201e7a" stroke-width="1.51"/><path d="M152-186L-9-164 162-42z" fill="#1d1f59" stroke="#1d1f59" stroke-width="1.51"/><path d="M299-234L-9-164l161-22z" fill="#1b1e57" stroke="#1b1e57" stroke-width="1.51"/><path d="M1514-205l96 3-329-12z" fill="#1b1b70" stroke="#1b1b70" stroke-width="1.51"/><path d="M1614-36l-4-166-96-3z" fill="#1b1b75" stroke="#1b1b75" stroke-width="1.51"/><path d="M1691 138l-81-340 4 166z" fill="#1f1e7d" stroke="#1f1e7d" stroke-width="1.51"/><path d="M-45 5l-159 185 191 21z" fill="#232563" stroke="#232563" stroke-width="1.51"/><path d="M-68 394l-174 170 226-43z" fill="#303178" stroke="#303178" stroke-width="1.51"/><path d="M-183-60l-21 250L-45 5z" fill="#1d1f59" stroke="#1d1f59" stroke-width="1.51"/><path d="M-70 758l-129 150 169-37z" fill="#252477" stroke="#252477" stroke-width="1.51"/><path d="M-257 313l15 251 174-170z" fill="#2d2f73" stroke="#2d2f73" stroke-width="1.51"/><path d="M1437 1106l223-22-187-140z" fill="#221f9f" stroke="#221f9f" stroke-width="1.51"/><path d="M1621 928l39 156-1-328z" fill="#24209f" stroke="#24209f" stroke-width="1.51"/><path d="M1659 756l1 328 31-532z" fill="#2a26a0" stroke="#2a26a0" stroke-width="1.51"/><path d="M1064 1151l596-67-223 22z" fill="#24209f" stroke="#24209f" stroke-width="1.51"/><path d="M-204 190l-53 123 189 81z" fill="#282a6a" stroke="#282a6a" stroke-width="1.51"/><path d="M-242 564l3 125 169 69z" fill="#282973" stroke="#282973" stroke-width="1.51"/><path d="M-30 871l11 279 169-206z" fill="#24237d" stroke="#24237d" stroke-width="1.51"/><path d="M-257 313l18 376-3-125z" fill="#2a2c71" stroke="#2a2c71" stroke-width="1.51"/><path d="M173 1089l-192 61 375-11z" fill="#242283" stroke="#242283" stroke-width="1.51"/><path d="M356 1139l-375 11 770-3z" fill="#2b288e" stroke="#2b288e" stroke-width="1.51"/><path d="M751 1147l-770 3 1083 1z" fill="#35309c" stroke="#35309c" stroke-width="1.51"/><path d="M-205 1087l186 63-11-279z" fill="#1e1d76" stroke="#1e1d76" stroke-width="1.51"/><path d="M-9-164L-183-60-45 5z" fill="#191b54" stroke="#191b54" stroke-width="1.51"/><path d="M-204 190l21-250-74 373z" fill="#1f215d" stroke="#1f215d" stroke-width="1.51"/><path d="M-239 689l40 219 129-150z" fill="#252473" stroke="#252473" stroke-width="1.51"/><path d="M-183-60l-23-109-51 482z" fill="#191c54" stroke="#191c54" stroke-width="1.51"/><path d="M-9-164l-197-5 23 109z" fill="#14174d" stroke="#14174d" stroke-width="1.51"/><path d="M299-234l-505 65 197 5z" fill="#181a51" stroke="#181a51" stroke-width="1.51"/><path d="M-239 689l34 398 6-179z" fill="#1e1e70" stroke="#1e1e70" stroke-width="1.51"/><path d="M-199 908l-6 179 175-216z" fill="#1f1e73" stroke="#1f1e73" stroke-width="1.51"/></svg>