<svg xmlns="http://www.w3.org/2000/svg" width="1440" height="900"><path d="M769 669l227 7-37-276z" fill="#606bed" stroke="#606bed" stroke-width="1.51"/><path d="M959 400l-281 46 91 223z" fill="#6673f0" stroke="#6673f0" stroke-width="1.51"/><path d="M996 676l207-180-244-96z" fill="#5d69ec" stroke="#5d69ec" stroke-width="1.51"/><path d="M959 400L724 188l-46 258z" fill="#6c7bf4" stroke="#6c7bf4" stroke-width="1.51"/><path d="M1263 164l-321 63 17 173z" fill="#6775f1" stroke="#6775f1" stroke-width="1.51"/><path d="M996 676l209 65-2-245z" fill="#5761e8" stroke="#5761e8" stroke-width="1.51"/><path d="M951 1000l254-259-209-65z" fill="#535de6" stroke="#535de6" stroke-width="1.51"/><path d="M942 227l-218-39 235 212z" fill="#6c7af4" stroke="#6c7af4" stroke-width="1.51"/><path d="M678 446l-182 23 273 200z" fill="#6977f2" stroke="#6977f2" stroke-width="1.51"/><path d="M436 227l60 242 182-23z" fill="#7182f7" stroke="#7182f7" stroke-width="1.51"/><path d="M769 669l-5 285 232-278z" fill="#5b66eb" stroke="#5b66eb" stroke-width="1.51"/><path d="M445 700l319 254 5-285z" fill="#606ced" stroke="#606ced" stroke-width="1.51"/><path d="M764 954l187 46 45-324z" fill="#565ee8" stroke="#565ee8" stroke-width="1.51"/><path d="M496 469l-51 231 324-31z" fill="#6876f2" stroke="#6876f2" stroke-width="1.51"/><path d="M1203 496l60-332-304 236z" fill="#616eee" stroke="#616eee" stroke-width="1.51"/><path d="M942 227l65-253-283 214z" fill="#7081f6" stroke="#7081f6" stroke-width="1.51"/><path d="M1460 422l-197-258-60 332z" fill="#5f67ec" stroke="#5f67ec" stroke-width="1.51"/><path d="M496 469L232 692l213 8z" fill="#6d7cf5" stroke="#6d7cf5" stroke-width="1.51"/><path d="M724 188l-288 39 242 219z" fill="#7283f8" stroke="#7283f8" stroke-width="1.51"/><path d="M1470 694l-10-272-257 74z" fill="#575de7" stroke="#575de7" stroke-width="1.51"/><path d="M951 1000l263 20-9-279z" fill="#4f55e4" stroke="#4f55e4" stroke-width="1.51"/><path d="M1470 694l-267-198 2 245z" fill="#545be6" stroke="#545be6" stroke-width="1.51"/><path d="M1263 164L1007-26l-65 253z" fill="#6c7bf3" stroke="#6c7bf3" stroke-width="1.51"/><path d="M724 188L708-89 436 227z" fill="#788cfb" stroke="#788cfb" stroke-width="1.51"/><path d="M1455 958l15-264-265 47z" fill="#4d51e2" stroke="#4d51e2" stroke-width="1.51"/><path d="M764 954l-82 254 269-208z" fill="#5659e6" stroke="#5659e6" stroke-width="1.51"/><path d="M951 1000l-10 273 273-253z" fill="#4d4fe2" stroke="#4d4fe2" stroke-width="1.51"/><path d="M445 700l-22 292 341-38z" fill="#626bed" stroke="#626bed" stroke-width="1.51"/><path d="M232 692l191 300 22-292z" fill="#6875f2" stroke="#6875f2" stroke-width="1.51"/><path d="M1007-26L708-89l16 277z" fill="#778af8" stroke="#778af8" stroke-width="1.51"/><path d="M158 497l74 195 264-223z" fill="#7283f7" stroke="#7283f7" stroke-width="1.51"/><path d="M1263 164l-45-265-211 75z" fill="#6f7ff2" stroke="#6f7ff2" stroke-width="1.51"/><path d="M1460 422l31-199-228-59z" fill="#6268ed" stroke="#6268ed" stroke-width="1.51"/><path d="M1767 426l-276-203-31 199z" fill="#5b5de8" stroke="#5b5de8" stroke-width="1.51"/><path d="M423 992l259 216 82-254z" fill="#5c5fe9" stroke="#5c5fe9" stroke-width="1.51"/><path d="M1214 1020l241-62-250-217z" fill="#4c4ee1" stroke="#4c4ee1" stroke-width="1.51"/><path d="M1462 1248l-7-290-241 62z" fill="#4643de" stroke="#4643de" stroke-width="1.51"/><path d="M682 1208l259 65 10-273z" fill="#5252e4" stroke="#5252e4" stroke-width="1.51"/><path d="M436 227L158 497l338-28z" fill="#7587fa" stroke="#7587fa" stroke-width="1.51"/><path d="M150 142l8 355 278-270z" fill="#7c91fc" stroke="#7c91fc" stroke-width="1.51"/><path d="M1525-111l-307 10 45 265z" fill="#6e7af0" stroke="#6e7af0" stroke-width="1.51"/><path d="M1007-26L769-289 708-89z" fill="#7d94f7" stroke="#7d94f7" stroke-width="1.51"/><path d="M708-89l-257-34-15 350z" fill="#7f95fc" stroke="#7f95fc" stroke-width="1.51"/><path d="M508-377l-57 254 257 34z" fill="#85a2fc" stroke="#85a2fc" stroke-width="1.51"/><path d="M941 1273l353-1-80-252z" fill="#4746df" stroke="#4746df" stroke-width="1.51"/><path d="M232 692l-82 252 273 48z" fill="#6a75f1" stroke="#6a75f1" stroke-width="1.51"/><path d="M423 992l54 296 205-80z" fill="#5d5de9" stroke="#5d5de9" stroke-width="1.51"/><path d="M-18 714l168 230 82-252z" fill="#7081f2" stroke="#7081f2" stroke-width="1.51"/><path d="M158 497L-18 714l250-22z" fill="#7588f5" stroke="#7588f5" stroke-width="1.51"/><path d="M206-61l-56 203 286 85z" fill="#8299ff" stroke="#8299ff" stroke-width="1.51"/><path d="M682 1208l-14 304 273-239z" fill="#514ce2" stroke="#514ce2" stroke-width="1.51"/><path d="M941 1273l298 260 55-261z" fill="#433ddc" stroke="#433ddc" stroke-width="1.51"/><path d="M202 1189l275 99-54-296z" fill="#6263ec" stroke="#6263ec" stroke-width="1.51"/><path d="M953-378l-184 89 238 263z" fill="#7e97f6" stroke="#7e97f6" stroke-width="1.51"/><path d="M1470 694l297-268-307-4z" fill="#5557e6" stroke="#5557e6" stroke-width="1.51"/><path d="M1491 223l34-334-262 275z" fill="#6870ef" stroke="#6870ef" stroke-width="1.51"/><path d="M1781 759l-14-333-297 268z" fill="#4e4ee2" stroke="#4e4ee2" stroke-width="1.51"/><path d="M1781 759l-311-65-15 264z" fill="#4949df" stroke="#4949df" stroke-width="1.51"/><path d="M1294 1272l168-24-248-228z" fill="#443fdd" stroke="#443fdd" stroke-width="1.51"/><path d="M190-357l16 296 245-62z" fill="#8babff" stroke="#8babff" stroke-width="1.51"/><path d="M451-123L206-61l230 288z" fill="#829bff" stroke="#829bff" stroke-width="1.51"/><path d="M1758 1007l23-248-326 199z" fill="#4440dd" stroke="#4440dd" stroke-width="1.51"/><path d="M-42 478l200 19-245-279z" fill="#7f98fa" stroke="#7f98fa" stroke-width="1.51"/><path d="M-42 478l24 236 176-217z" fill="#7a8ff7" stroke="#7a8ff7" stroke-width="1.51"/><path d="M1218-101L953-378l54 352z" fill="#798ef4" stroke="#798ef4" stroke-width="1.51"/><path d="M1789 145l-264-256-34 334z" fill="#6669ed" stroke="#6669ed" stroke-width="1.51"/><path d="M1290-326l-337-52 265 277z" fill="#7a91f3" stroke="#7a91f3" stroke-width="1.51"/><path d="M769-289l-261-88L708-89z" fill="#84a1fa" stroke="#84a1fa" stroke-width="1.51"/><path d="M-87 218l245 279-8-355z" fill="#819afc" stroke="#819afc" stroke-width="1.51"/><path d="M-39 945l241 244-52-245z" fill="#6d76ee" stroke="#6d76ee" stroke-width="1.51"/><path d="M150 944l52 245 221-197z" fill="#686eee" stroke="#686eee" stroke-width="1.51"/><path d="M1464-300l-174-26-72 225z" fill="#7889f1" stroke="#7889f1" stroke-width="1.51"/><path d="M1462 1248l296-241-303-49z" fill="#423cdc" stroke="#423cdc" stroke-width="1.51"/><path d="M497 1481l171 31-191-224z" fill="#5852e5" stroke="#5852e5" stroke-width="1.51"/><path d="M477 1288l191 224 14-304z" fill="#5752e5" stroke="#5752e5" stroke-width="1.51"/><path d="M1294 1272l190 200-22-224z" fill="#3d33d9" stroke="#3d33d9" stroke-width="1.51"/><path d="M2050 230l-261-85-22 281z" fill="#5a56e7" stroke="#5a56e7" stroke-width="1.51"/><path d="M1767 426l22-281-298 78z" fill="#5d5de9" stroke="#5d5de9" stroke-width="1.51"/><path d="M668 1512l300 25-27-264z" fill="#4d47e0" stroke="#4d47e0" stroke-width="1.51"/><path d="M953-378l-445 1 261 88z" fill="#86a4f9" stroke="#86a4f9" stroke-width="1.51"/><path d="M-18 714l-21 231 189-1z" fill="#7281f1" stroke="#7281f1" stroke-width="1.51"/><path d="M-349 690l310 255 21-231z" fill="#788df2" stroke="#788df2" stroke-width="1.51"/><path d="M178 1544l319-63-20-193z" fill="#5d58e8" stroke="#5d58e8" stroke-width="1.51"/><path d="M1763-353l-299 53 61 189z" fill="#767fed" stroke="#767fed" stroke-width="1.51"/><path d="M1525-111l-61-189-246 199z" fill="#7481f0" stroke="#7481f0" stroke-width="1.51"/><path d="M1290-326l473-27-810-25z" fill="#7c8ff0" stroke="#7c8ff0" stroke-width="1.51"/><path d="M-42 478l-307 212 331 24z" fill="#7c94f5" stroke="#7c94f5" stroke-width="1.51"/><path d="M-95-110l8 328 237-76z" fill="#8aa9ff" stroke="#8aa9ff" stroke-width="1.51"/><path d="M-95-110l245 252 56-203z" fill="#8aaaff" stroke="#8aaaff" stroke-width="1.51"/><path d="M968 1537l271-4-298-260z" fill="#4640dd" stroke="#4640dd" stroke-width="1.51"/><path d="M1462 1248l256 18 40-259z" fill="#3c32d8" stroke="#3c32d8" stroke-width="1.51"/><path d="M1484 1472l234-206-256-18z" fill="#392dd7" stroke="#392dd7" stroke-width="1.51"/><path d="M1239 1533l245-61-190-200z" fill="#3e35d9" stroke="#3e35d9" stroke-width="1.51"/><path d="M1789 145l4-220-268-36z" fill="#696ceb" stroke="#696ceb" stroke-width="1.51"/><path d="M2018-24l-225-51-4 220z" fill="#6663e9" stroke="#6663e9" stroke-width="1.51"/><path d="M508-377l-318 20 261 234z" fill="#8cadfe" stroke="#8cadfe" stroke-width="1.51"/><path d="M1781 759l247-352-261 19z" fill="#4f4ae1" stroke="#4f4ae1" stroke-width="1.51"/><path d="M2056 746l-28-339-247 352z" fill="#4944df" stroke="#4944df" stroke-width="1.51"/><path d="M2056 746l-275 13 238 216z" fill="#413adb" stroke="#413adb" stroke-width="1.51"/><path d="M-39 945l-15 314 256-70z" fill="#6e74ed" stroke="#6e74ed" stroke-width="1.51"/><path d="M202 1189l-24 355 299-256z" fill="#615ee9" stroke="#615ee9" stroke-width="1.51"/><path d="M-289 1005l235 254 15-314z" fill="#757fee" stroke="#757fee" stroke-width="1.51"/><path d="M190-357L-95-110l301 49z" fill="#8fb4ff" stroke="#8fb4ff" stroke-width="1.51"/><path d="M2019 975l-238-216-23 248z" fill="#3f37da" stroke="#3f37da" stroke-width="1.51"/><path d="M2056 746l-6-516-22 177z" fill="#524ce2" stroke="#524ce2" stroke-width="1.51"/><path d="M2028 407l22-177-283 196z" fill="#5651e4" stroke="#5651e4" stroke-width="1.51"/><path d="M2012 1185l7-210-261 32z" fill="#3a2dd7" stroke="#3a2dd7" stroke-width="1.51"/><path d="M-356 173l30 318 239-273z" fill="#89aafc" stroke="#89aafc" stroke-width="1.51"/><path d="M-87 218l-239 273 284-13z" fill="#84a0fa" stroke="#84a0fa" stroke-width="1.51"/><path d="M-54 1259l232 285 24-355z" fill="#6867e9" stroke="#6867e9" stroke-width="1.51"/><path d="M497 1481l-319 63 490-32z" fill="#5b56e7" stroke="#5b56e7" stroke-width="1.51"/><path d="M668 1512l-490 32 790-7z" fill="#5650e4" stroke="#5650e4" stroke-width="1.51"/><path d="M-326 491l-23 199 307-212z" fill="#819df7" stroke="#819df7" stroke-width="1.51"/><path d="M1793-75l-30-278-238 242z" fill="#7177ec" stroke="#7177ec" stroke-width="1.51"/><path d="M1464-300l299-53-473 27z" fill="#7987ee" stroke="#7987ee" stroke-width="1.51"/><path d="M2035-356l-272 3 30 278z" fill="#7376ea" stroke="#7376ea" stroke-width="1.51"/><path d="M-349 690l60 315 250-60z" fill="#7a8df1" stroke="#7a8df1" stroke-width="1.51"/><path d="M-54 1259l-44 260 276 25z" fill="#6c6ae9" stroke="#6c6ae9" stroke-width="1.51"/><path d="M2050 230l-32-254-229 169z" fill="#605ce9" stroke="#605ce9" stroke-width="1.51"/><path d="M1718 1266l294-81-254-178z" fill="#382bd7" stroke="#382bd7" stroke-width="1.51"/><path d="M2019 975l-7 210 44-439z" fill="#3c32d9" stroke="#3c32d9" stroke-width="1.51"/><path d="M2001 1503l11-318-294 81z" fill="#2f1bd3" stroke="#2f1bd3" stroke-width="1.51"/><path d="M-326 491l-30-318 7 517z" fill="#87a7f9" stroke="#87a7f9" stroke-width="1.51"/><path d="M-296-83l-60 256 269 45z" fill="#8fb3ff" stroke="#8fb3ff" stroke-width="1.51"/><path d="M1484 1472l248 70-14-276z" fill="#3626d6" stroke="#3626d6" stroke-width="1.51"/><path d="M1239 1533l493 9-248-70z" fill="#3a2ed8" stroke="#3a2ed8" stroke-width="1.51"/><path d="M968 1537l764 5-493-9z" fill="#3e36da" stroke="#3e36da" stroke-width="1.51"/><path d="M178 1544l1554-2-764-5z" fill="#4944df" stroke="#4944df" stroke-width="1.51"/><path d="M-95-110l-201 27 209 301z" fill="#8fb5ff" stroke="#8fb5ff" stroke-width="1.51"/><path d="M-285-334l-11 251 201-27z" fill="#96c4ff" stroke="#96c4ff" stroke-width="1.51"/><path d="M190-357l-286-10 1 257z" fill="#94bfff" stroke="#94bfff" stroke-width="1.51"/><path d="M508-377l-604 10 286 10z" fill="#92bbff" stroke="#92bbff" stroke-width="1.51"/><path d="M-339 1188l241 331 44-260z" fill="#7275ea" stroke="#7275ea" stroke-width="1.51"/><path d="M-289 1005l-50 183 285 71z" fill="#7780ed" stroke="#7780ed" stroke-width="1.51"/><path d="M-349 690l10 498 50-183z" fill="#7b8ef0" stroke="#7b8ef0" stroke-width="1.51"/><path d="M2018-24l17-332-242 281z" fill="#6e6de9" stroke="#6e6de9" stroke-width="1.51"/><path d="M1763-353l272-3-1082-22z" fill="#7a87ed" stroke="#7a87ed" stroke-width="1.51"/><path d="M2050 230l-15-586-17 332z" fill="#6967e9" stroke="#6967e9" stroke-width="1.51"/><path d="M1732 1542l269-39-283-237z" fill="#301cd3" stroke="#301cd3" stroke-width="1.51"/><path d="M2012 1185l-11 318 55-757z" fill="#3628d6" stroke="#3628d6" stroke-width="1.51"/><path d="M-296-83l11-251-71 507z" fill="#95c2ff" stroke="#95c2ff" stroke-width="1.51"/><path d="M-96-367l-189 33 190 224z" fill="#97c6ff" stroke="#97c6ff" stroke-width="1.51"/><path d="M-98 1519l-243 19 519 6z" fill="#6f6fe9" stroke="#6f6fe9" stroke-width="1.51"/><path d="M-339 1188l-2 350 243-19z" fill="#7577ea" stroke="#7577ea" stroke-width="1.51"/><path d="M-349 690l8 848 2-350z" fill="#7a87ee" stroke="#7a87ee" stroke-width="1.51"/><path d="M-356 173l15 1365-8-848z" fill="#7e98f3" stroke="#7e98f3" stroke-width="1.51"/></svg>