<svg xmlns="http://www.w3.org/2000/svg" width="1920" height="1200"><path d="M989 573l-132-21 50 90z" fill="#fe9d2d" stroke="#fe9d2d" stroke-width="1.51"/><path d="M857 552l-72 122 122-32z" fill="#fe9f2f" stroke="#fe9f2f" stroke-width="1.51"/><path d="M907 642l116 48-34-117z" fill="#fc9527" stroke="#fc9527" stroke-width="1.51"/><path d="M793 548l-8 126 72-122z" fill="#ffa534" stroke="#ffa534" stroke-width="1.51"/><path d="M907 642l-1 173 117-125z" fill="#f98f24" stroke="#f98f24" stroke-width="1.51"/><path d="M1021 384l-154-17-10 185z" fill="#feae3c" stroke="#feae3c" stroke-width="1.51"/><path d="M857 552l10-185-74 181z" fill="#ffae3c" stroke="#ffae3c" stroke-width="1.51"/><path d="M989 573l32-189-164 168z" fill="#ffa433" stroke="#ffa433" stroke-width="1.51"/><path d="M1202 534l-181-150-32 189z" fill="#fc9d2f" stroke="#fc9d2f" stroke-width="1.51"/><path d="M1023 690l107-13-141-104z" fill="#fa8f23" stroke="#fa8f23" stroke-width="1.51"/><path d="M785 674l121 141 1-173z" fill="#fa952a" stroke="#fa952a" stroke-width="1.51"/><path d="M1023 690l159 72-52-85z" fill="#f5841f" stroke="#f5841f" stroke-width="1.51"/><path d="M906 815l87-8 30-117z" fill="#f68720" stroke="#f68720" stroke-width="1.51"/><path d="M785 674l-52 85 173 56z" fill="#f9952c" stroke="#f9952c" stroke-width="1.51"/><path d="M606 698l127 61 52-85z" fill="#faa034" stroke="#faa034" stroke-width="1.51"/><path d="M867 367l-148 21 74 160z" fill="#ffb744" stroke="#ffb744" stroke-width="1.51"/><path d="M793 548l-158-3 150 129z" fill="#feaa38" stroke="#feaa38" stroke-width="1.51"/><path d="M1021 384l-116-84-38 67z" fill="#ffb447" stroke="#ffb447" stroke-width="1.51"/><path d="M867 367L760 240l-41 148z" fill="#ffc153" stroke="#ffc153" stroke-width="1.51"/><path d="M1130 677l72-143-213 39z" fill="#fa9025" stroke="#fa9025" stroke-width="1.51"/><path d="M1021 384l-14-80-102-4z" fill="#ffb348" stroke="#ffb348" stroke-width="1.51"/><path d="M1140 291l-133 13 14 80z" fill="#fdae46" stroke="#fdae46" stroke-width="1.51"/><path d="M644 433l-9 112 158 3z" fill="#ffb643" stroke="#ffb643" stroke-width="1.51"/><path d="M719 388l-75 45 149 115z" fill="#ffba46" stroke="#ffba46" stroke-width="1.51"/><path d="M1202 534l-15-134-166-16z" fill="#fa9f33" stroke="#fa9f33" stroke-width="1.51"/><path d="M993 807l189-45-159-72z" fill="#f4831e" stroke="#f4831e" stroke-width="1.51"/><path d="M1130 677l151 14-79-157z" fill="#f6851f" stroke="#f6851f" stroke-width="1.51"/><path d="M530 553l76 145 29-153z" fill="#ffb245" stroke="#ffb245" stroke-width="1.51"/><path d="M635 545l-29 153 179-24z" fill="#fdaa3a" stroke="#fdaa3a" stroke-width="1.51"/><path d="M1187 400l-47-109-119 93z" fill="#fba83f" stroke="#fba83f" stroke-width="1.51"/><path d="M867 95L760 240l145 60z" fill="#ffc663" stroke="#ffc663" stroke-width="1.51"/><path d="M606 698l56 141 71-80z" fill="#f89e34" stroke="#f89e34" stroke-width="1.51"/><path d="M738 935l150 16 18-136z" fill="#ee8523" stroke="#ee8523" stroke-width="1.51"/><path d="M906 815l-18 136 105-144z" fill="#f1821e" stroke="#f1821e" stroke-width="1.51"/><path d="M905 300l-145-60 107 127z" fill="#ffbf54" stroke="#ffbf54" stroke-width="1.51"/><path d="M630 227L509 408l135 25z" fill="#ffca5e" stroke="#ffca5e" stroke-width="1.51"/><path d="M867 95l38 205 148-191z" fill="#ffc163" stroke="#ffc163" stroke-width="1.51"/><path d="M738 935l168-120-173-56z" fill="#f38e29" stroke="#f38e29" stroke-width="1.51"/><path d="M993 807l65 127 124-172z" fill="#ef7a19" stroke="#ef7a19" stroke-width="1.51"/><path d="M1182 762l99-71-151-14z" fill="#f27e1c" stroke="#f27e1c" stroke-width="1.51"/><path d="M1202 534l97-22-112-112z" fill="#f7942c" stroke="#f7942c" stroke-width="1.51"/><path d="M1187 400l97-179-144 70z" fill="#faa646" stroke="#faa646" stroke-width="1.51"/><path d="M1281 691l18-179-97 22z" fill="#f58721" stroke="#f58721" stroke-width="1.51"/><path d="M888 951l170-17-65-127z" fill="#ed7b1a" stroke="#ed7b1a" stroke-width="1.51"/><path d="M1182 762l119 74-20-145z" fill="#ee7517" stroke="#ee7517" stroke-width="1.51"/><path d="M644 433L530 553l105-8z" fill="#ffbb4b" stroke="#ffbb4b" stroke-width="1.51"/><path d="M606 698l-99 130 155 11z" fill="#f8a03b" stroke="#f8a03b" stroke-width="1.51"/><path d="M509 408l21 145 114-120z" fill="#ffc254" stroke="#ffc254" stroke-width="1.51"/><path d="M662 839l76 96-5-176z" fill="#f3942e" stroke="#f3942e" stroke-width="1.51"/><path d="M1058 934l138-39-14-133z" fill="#eb7315" stroke="#eb7315" stroke-width="1.51"/><path d="M530 553l-21 145h97z" fill="#feaf48" stroke="#feaf48" stroke-width="1.51"/><path d="M640 1069l124-37-26-97z" fill="#e68527" stroke="#e68527" stroke-width="1.51"/><path d="M1299 512l21-100-133-12z" fill="#f6962e" stroke="#f6962e" stroke-width="1.51"/><path d="M1397 408l-77 4-21 100z" fill="#f2922c" stroke="#f2922c" stroke-width="1.51"/><path d="M630 227l14 206 75-45z" fill="#ffc757" stroke="#ffc757" stroke-width="1.51"/><path d="M530 553L382 679l127 19z" fill="#feb450" stroke="#feb450" stroke-width="1.51"/><path d="M760 240l-130-13 89 161z" fill="#ffc960" stroke="#ffc960" stroke-width="1.51"/><path d="M1196 895l105-59-119-74z" fill="#eb7014" stroke="#eb7014" stroke-width="1.51"/><path d="M1427 533l-30-125-98 104z" fill="#f08b27" stroke="#f08b27" stroke-width="1.51"/><path d="M738 935l26 97 124-81z" fill="#e98323" stroke="#e98323" stroke-width="1.51"/><path d="M888 951l138 141 32-158z" fill="#e57216" stroke="#e57216" stroke-width="1.51"/><path d="M1058 934l136 144 2-183z" fill="#e26911" stroke="#e26911" stroke-width="1.51"/><path d="M592 966l146-31-76-96z" fill="#ee912e" stroke="#ee912e" stroke-width="1.51"/><path d="M1053 109L905 300l102 4z" fill="#ffb958" stroke="#ffb958" stroke-width="1.51"/><path d="M760 240L645 99l-15 128z" fill="#ffd271" stroke="#ffd271" stroke-width="1.51"/><path d="M1053 109l-46 195 133-13z" fill="#feb556" stroke="#feb556" stroke-width="1.51"/><path d="M1199 103l-146 6 87 182z" fill="#fdb55d" stroke="#fdb55d" stroke-width="1.51"/><path d="M509 698l-2 130 99-130z" fill="#faa743" stroke="#faa743" stroke-width="1.51"/><path d="M382 679l125 149 2-130z" fill="#fbac4d" stroke="#fbac4d" stroke-width="1.51"/><path d="M1320 412l-36-191-97 179z" fill="#f89f3d" stroke="#f89f3d" stroke-width="1.51"/><path d="M1427 533l-128-21-18 179z" fill="#f1831f" stroke="#f1831f" stroke-width="1.51"/><path d="M1416 290l-132-69 36 191z" fill="#f49e41" stroke="#f49e41" stroke-width="1.51"/><path d="M1459 637l-32-104-146 158z" fill="#ee7b1a" stroke="#ee7b1a" stroke-width="1.51"/><path d="M507 828l85 138 70-127z" fill="#f29838" stroke="#f29838" stroke-width="1.51"/><path d="M867 95l-115-8 8 153z" fill="#ffcd6f" stroke="#ffcd6f" stroke-width="1.51"/><path d="M907 1108l119-16-138-141z" fill="#df7218" stroke="#df7218" stroke-width="1.51"/><path d="M1196 895l131 52-26-111z" fill="#e46810" stroke="#e46810" stroke-width="1.51"/><path d="M764 1032l143 76-19-157z" fill="#e37a1e" stroke="#e37a1e" stroke-width="1.51"/><path d="M744 1165l163-57-143-76z" fill="#da7820" stroke="#da7820" stroke-width="1.51"/><path d="M1543 429l-127-139-19 118z" fill="#ed9232" stroke="#ed9232" stroke-width="1.51"/><path d="M1468 812l-9-175-178 54z" fill="#e97114" stroke="#e97114" stroke-width="1.51"/><path d="M1284 221l-85-118-59 188z" fill="#faae56" stroke="#faae56" stroke-width="1.51"/><path d="M1053 109l-8-77-178 63z" fill="#ffc26b" stroke="#ffc26b" stroke-width="1.51"/><path d="M867 95L764-16 752 87z" fill="#ffd178" stroke="#ffd178" stroke-width="1.51"/><path d="M352 538l30 141 148-126z" fill="#ffbc59" stroke="#ffbc59" stroke-width="1.51"/><path d="M605 1163l35-94-161 35z" fill="#da8633" stroke="#da8633" stroke-width="1.51"/><path d="M1301 836l167-24-187-121z" fill="#e96e13" stroke="#e96e13" stroke-width="1.51"/><path d="M1282 1043l45-96-131-52z" fill="#df620d" stroke="#df620d" stroke-width="1.51"/><path d="M752 87L645 99l115 141z" fill="#ffd174" stroke="#ffd174" stroke-width="1.51"/><path d="M630 227l-137-3 16 184z" fill="#ffd26f" stroke="#ffd26f" stroke-width="1.51"/><path d="M509 408L352 538l178 15z" fill="#ffc45c" stroke="#ffc45c" stroke-width="1.51"/><path d="M517 162l-24 62 137 3z" fill="#ffd87c" stroke="#ffd87c" stroke-width="1.51"/><path d="M1199 103l-154-71 8 77z" fill="#ffbb68" stroke="#ffbb68" stroke-width="1.51"/><path d="M752 87L616-2l29 101z" fill="#ffd97f" stroke="#ffd97f" stroke-width="1.51"/><path d="M592 966l48 103 98-134z" fill="#e88b2b" stroke="#e88b2b" stroke-width="1.51"/><path d="M473 934l119 32-85-138z" fill="#f0993e" stroke="#f0993e" stroke-width="1.51"/><path d="M345 418l7 120 157-130z" fill="#ffcb67" stroke="#ffcb67" stroke-width="1.51"/><path d="M1397 408l19-118-96 122z" fill="#f19635" stroke="#f19635" stroke-width="1.51"/><path d="M1284 221l27-118h-112z" fill="#faad5c" stroke="#faad5c" stroke-width="1.51"/><path d="M1543 429l-146-21 30 125z" fill="#ed8a28" stroke="#ed8a28" stroke-width="1.51"/><path d="M1186 1172l8-94-168 14z" fill="#d2610f" stroke="#d2610f" stroke-width="1.51"/><path d="M1026 1092l168-14-136-144z" fill="#dd6811" stroke="#dd6811" stroke-width="1.51"/><path d="M362 842l111 92 34-106z" fill="#f3a048" stroke="#f3a048" stroke-width="1.51"/><path d="M380 224l-35 194 164-10z" fill="#ffd473" stroke="#ffd473" stroke-width="1.51"/><path d="M645 99l-128 63 113 65z" fill="#ffd87b" stroke="#ffd87b" stroke-width="1.51"/><path d="M1045 32L899-6 867 95z" fill="#ffc771" stroke="#ffc771" stroke-width="1.51"/><path d="M1194 1078l88-35-86-148z" fill="#dc610c" stroke="#dc610c" stroke-width="1.51"/><path d="M1390 977l78-165-141 135z" fill="#dc5e0b" stroke="#dc5e0b" stroke-width="1.51"/><path d="M1327 947l141-135-167 24z" fill="#e1650e" stroke="#e1650e" stroke-width="1.51"/><path d="M380 224l129 184-16-184z" fill="#ffd678" stroke="#ffd678" stroke-width="1.51"/><path d="M907 1108l83 64 36-80z" fill="#d56a15" stroke="#d56a15" stroke-width="1.51"/><path d="M1194 1078l-8 94 96-129z" fill="#d15c0c" stroke="#d15c0c" stroke-width="1.51"/><path d="M918 1242l72-70-83-64z" fill="#cf6a17" stroke="#cf6a17" stroke-width="1.51"/><path d="M645 99L616-2l-99 164z" fill="#ffdc84" stroke="#ffdc84" stroke-width="1.51"/><path d="M899-6L764-16 867 95z" fill="#ffcf79" stroke="#ffcf79" stroke-width="1.51"/><path d="M1199 103l-24-138-130 67z" fill="#ffbb6b" stroke="#ffbb6b" stroke-width="1.51"/><path d="M1472 136l-161-33-27 118z" fill="#f5a757" stroke="#f5a757" stroke-width="1.51"/><path d="M640 1069l104 96 20-133z" fill="#db8026" stroke="#db8026" stroke-width="1.51"/><path d="M605 1163l139 2-104-96z" fill="#d68029" stroke="#d68029" stroke-width="1.51"/><path d="M1282 1043l108-66-63-30z" fill="#d95c09" stroke="#d95c09" stroke-width="1.51"/><path d="M479 1104l161-35-48-103z" fill="#e28c35" stroke="#e28c35" stroke-width="1.51"/><path d="M382 679l-20 163 145-14z" fill="#faaa50" stroke="#faaa50" stroke-width="1.51"/><path d="M240 792l122 50 20-163z" fill="#fbaf59" stroke="#fbaf59" stroke-width="1.51"/><path d="M240 792l142-113-181-54z" fill="#feb761" stroke="#feb761" stroke-width="1.51"/><path d="M1416 290l56-154-188 85z" fill="#f2a24f" stroke="#f2a24f" stroke-width="1.51"/><path d="M1600 569l-57-140-116 104z" fill="#e88021" stroke="#e88021" stroke-width="1.51"/><path d="M1600 569l-173-36 32 104z" fill="#e9791a" stroke="#e9791a" stroke-width="1.51"/><path d="M517 162l-137 62h113z" fill="#ffdd85" stroke="#ffdd85" stroke-width="1.51"/><path d="M346 96l34 128 137-62z" fill="#ffe28f" stroke="#ffe28f" stroke-width="1.51"/><path d="M362 842l26 98 85-6z" fill="#f29f4c" stroke="#f29f4c" stroke-width="1.51"/><path d="M990 1172h196l-160-80z" fill="#d06312" stroke="#d06312" stroke-width="1.51"/><path d="M1282 1043l141 7-33-73z" fill="#d45707" stroke="#d45707" stroke-width="1.51"/><path d="M764-16L616-2l136 89z" fill="#ffd881" stroke="#ffd881" stroke-width="1.51"/><path d="M1468 812l104-151-113-24z" fill="#e46c12" stroke="#e46c12" stroke-width="1.51"/><path d="M1555 802l17-141-104 151z" fill="#e0650f" stroke="#e0650f" stroke-width="1.51"/><path d="M996-126l-118 25 21 95z" fill="#ffcc7f" stroke="#ffcc7f" stroke-width="1.51"/><path d="M899-6l-21-95-114 85z" fill="#ffd07f" stroke="#ffd07f" stroke-width="1.51"/><path d="M1275 4l-100-39 24 138z" fill="#fdb669" stroke="#fdb669" stroke-width="1.51"/><path d="M744 1165l174 77-11-134z" fill="#d0701d" stroke="#d0701d" stroke-width="1.51"/><path d="M990 1172l78 198 118-198z" fill="#c35d12" stroke="#c35d12" stroke-width="1.51"/><path d="M718 1364l170 8 30-130z" fill="#bb691e" stroke="#bb691e" stroke-width="1.51"/><path d="M479 1104l113-138-119-32z" fill="#e9913c" stroke="#e9913c" stroke-width="1.51"/><path d="M1311 103l-36-99-76 99z" fill="#fcb163" stroke="#fcb163" stroke-width="1.51"/><path d="M1445-30L1275 4l36 99z" fill="#f8ae65" stroke="#f8ae65" stroke-width="1.51"/><path d="M1552 954l3-152-87 10z" fill="#d95c09" stroke="#d95c09" stroke-width="1.51"/><path d="M996-126L899-6l146 38z" fill="#ffc778" stroke="#ffc778" stroke-width="1.51"/><path d="M764-16l-40-133L616-2z" fill="#ffdb89" stroke="#ffdb89" stroke-width="1.51"/><path d="M1572 661l28-92-141 68z" fill="#e57316" stroke="#e57316" stroke-width="1.51"/><path d="M1678 680l-78-111-28 92z" fill="#df6e14" stroke="#df6e14" stroke-width="1.51"/><path d="M388 940l91 164-6-170z" fill="#ea9644" stroke="#ea9644" stroke-width="1.51"/><path d="M1390 977l162-23-84-142z" fill="#d85a08" stroke="#d85a08" stroke-width="1.51"/><path d="M1329 1205l94-155-141-7z" fill="#cb5308" stroke="#cb5308" stroke-width="1.51"/><path d="M1605 273l-189 17 127 139z" fill="#eb9138" stroke="#eb9138" stroke-width="1.51"/><path d="M1605 273l-133-137-56 154z" fill="#ed9a49" stroke="#ed9a49" stroke-width="1.51"/><path d="M1142-139l-146 13 49 158z" fill="#ffc379" stroke="#ffc379" stroke-width="1.51"/><path d="M1142-139l-97 171 130-67z" fill="#ffbe74" stroke="#ffbe74" stroke-width="1.51"/><path d="M201 625l181 54-30-141z" fill="#ffbe62" stroke="#ffbe62" stroke-width="1.51"/><path d="M362 842L180 946l208-6z" fill="#f2a354" stroke="#f2a354" stroke-width="1.51"/><path d="M388 940l-47 98 138 66z" fill="#e69548" stroke="#e69548" stroke-width="1.51"/><path d="M201 625l151-87-166 33z" fill="#ffc469" stroke="#ffc469" stroke-width="1.51"/><path d="M220 380l132 158-7-120z" fill="#ffd070" stroke="#ffd070" stroke-width="1.51"/><path d="M380 224L220 380l125 38z" fill="#ffd97d" stroke="#ffd97d" stroke-width="1.51"/><path d="M220 380l-34 191 166-33z" fill="#ffcc70" stroke="#ffcc70" stroke-width="1.51"/><path d="M85 771l95 175 60-154z" fill="#f9ae62" stroke="#f9ae62" stroke-width="1.51"/><path d="M482-121L449 11 616-2z" fill="#ffe599" stroke="#ffe599" stroke-width="1.51"/><path d="M616-2L449 11l68 151z" fill="#ffe18e" stroke="#ffe18e" stroke-width="1.51"/><path d="M380 224l-180 16 20 140z" fill="#ffdf8a" stroke="#ffdf8a" stroke-width="1.51"/><path d="M1555 802l123-122-106-19z" fill="#dd660f" stroke="#dd660f" stroke-width="1.51"/><path d="M1423 1050l129-96-162 23z" fill="#d35405" stroke="#d35405" stroke-width="1.51"/><path d="M180 946l161 92 47-98z" fill="#ed9d52" stroke="#ed9d52" stroke-width="1.51"/><path d="M1263-98l-88 63 100 39z" fill="#feb670" stroke="#feb670" stroke-width="1.51"/><path d="M1263-98l-121-41 33 104z" fill="#ffbb76" stroke="#ffbb76" stroke-width="1.51"/><path d="M1704 426l-99-153-62 156z" fill="#e3892f" stroke="#e3892f" stroke-width="1.51"/><path d="M449 11L346 96l171 66z" fill="#ffe494" stroke="#ffe494" stroke-width="1.51"/><path d="M1423 1050l109 27 20-123z" fill="#cc4f03" stroke="#cc4f03" stroke-width="1.51"/><path d="M1186 1172l143 33-47-162z" fill="#ca560b" stroke="#ca560b" stroke-width="1.51"/><path d="M1280 1342l49-137-143-33z" fill="#bd500c" stroke="#bd500c" stroke-width="1.51"/><path d="M1142-139l-418-10 272 23z" fill="#ffcb83" stroke="#ffcb83" stroke-width="1.51"/><path d="M996-126l-272-23 154 48z" fill="#ffd187" stroke="#ffd187" stroke-width="1.51"/><path d="M878-101l-154-48 40 133z" fill="#ffd688" stroke="#ffd688" stroke-width="1.51"/><path d="M1445-30l-182-68 12 102z" fill="#fab16d" stroke="#fab16d" stroke-width="1.51"/><path d="M1445-30l-134 133 161 33z" fill="#f4a95f" stroke="#f4a95f" stroke-width="1.51"/><path d="M724-149l-130 41L616-2z" fill="#ffdf91" stroke="#ffdf91" stroke-width="1.51"/><path d="M1600 569l92-78-149-62z" fill="#e27d21" stroke="#e27d21" stroke-width="1.51"/><path d="M1694 782l-16-102-123 122z" fill="#d7600e" stroke="#d7600e" stroke-width="1.51"/><path d="M1678 680l14-189-92 78z" fill="#dd7218" stroke="#dd7218" stroke-width="1.51"/><path d="M479 1104l2 121 124-62z" fill="#d38639" stroke="#d38639" stroke-width="1.51"/><path d="M605 1163l42 150 97-148z" fill="#cb7b28" stroke="#cb7b28" stroke-width="1.51"/><path d="M389 1243l92-18-2-121z" fill="#d08840" stroke="#d08840" stroke-width="1.51"/><path d="M522 1314l125-1-42-150z" fill="#c57d30" stroke="#c57d30" stroke-width="1.51"/><path d="M918 1242l150 128-78-198z" fill="#c26215" stroke="#c26215" stroke-width="1.51"/><path d="M232 115l-32 125 180-16z" fill="#ffe698" stroke="#ffe698" stroke-width="1.51"/><path d="M449 11l-99 22-4 63z" fill="#ffe99e" stroke="#ffe99e" stroke-width="1.51"/><path d="M374-121L350 33l99-22z" fill="#ffeba5" stroke="#ffeba5" stroke-width="1.51"/><path d="M1525 1175l7-98-109-27z" fill="#c34a04" stroke="#c34a04" stroke-width="1.51"/><path d="M1661 938l33-156-139 20z" fill="#d35809" stroke="#d35809" stroke-width="1.51"/><path d="M232 115l148 109-34-128z" fill="#ffe699" stroke="#ffe699" stroke-width="1.51"/><path d="M70 546l9 103 107-78z" fill="#ffc772" stroke="#ffc772" stroke-width="1.51"/><path d="M1657 121l-92-13 40 165z" fill="#e6994f" stroke="#e6994f" stroke-width="1.51"/><path d="M1605 273l-40-165-93 28z" fill="#eb9b50" stroke="#eb9b50" stroke-width="1.51"/><path d="M1692 491l12-65-161 3z" fill="#df8026" stroke="#df8026" stroke-width="1.51"/><path d="M1794 540l-90-114-12 65z" fill="#d87921" stroke="#d87921" stroke-width="1.51"/><path d="M718 1364l200-122-174-77z" fill="#c47020" stroke="#c47020" stroke-width="1.51"/><path d="M1661 938l-106-136-3 152z" fill="#d25506" stroke="#d25506" stroke-width="1.51"/><path d="M1678 680l116-140-102-49z" fill="#d86f19" stroke="#d86f19" stroke-width="1.51"/><path d="M1523 3l-78-33 27 166z" fill="#f1a660" stroke="#f1a660" stroke-width="1.51"/><path d="M888 1372l180-2-150-128z" fill="#ba6016" stroke="#ba6016" stroke-width="1.51"/><path d="M1329 1205l96 22-2-177z" fill="#c14d07" stroke="#c14d07" stroke-width="1.51"/><path d="M647 1313l71 51 26-199z" fill="#c17526" stroke="#c17526" stroke-width="1.51"/><path d="M522 1314l196 50-71-51z" fill="#bb772c" stroke="#bb772c" stroke-width="1.51"/><path d="M594-108l-112-13L616-2z" fill="#ffe498" stroke="#ffe498" stroke-width="1.51"/><path d="M724-149l-242 28 112 13z" fill="#ffe399" stroke="#ffe399" stroke-width="1.51"/><path d="M1280 1342l145-115-96-22z" fill="#b64a09" stroke="#b64a09" stroke-width="1.51"/><path d="M1710 1083l-49-145-129 139z" fill="#c24703" stroke="#c24703" stroke-width="1.51"/><path d="M1532 1077l129-139-109 16z" fill="#cb4c02" stroke="#cb4c02" stroke-width="1.51"/><path d="M341 1038l48 205 90-139z" fill="#d98e46" stroke="#d98e46" stroke-width="1.51"/><path d="M240 792l-60 154 182-104z" fill="#f6a95a" stroke="#f6a95a" stroke-width="1.51"/><path d="M85 771l155 21-39-167z" fill="#feb866" stroke="#feb866" stroke-width="1.51"/><path d="M350 33l-118 82 114-19z" fill="#ffeaa1" stroke="#ffeaa1" stroke-width="1.51"/><path d="M185-29l47 144 118-82z" fill="#ffeea9" stroke="#ffeea9" stroke-width="1.51"/><path d="M1565 108L1523 3l-51 133z" fill="#efa15a" stroke="#efa15a" stroke-width="1.51"/><path d="M1664-34L1523 3l42 105z" fill="#eca15e" stroke="#eca15e" stroke-width="1.51"/><path d="M1068 1370l100 6 18-204z" fill="#b75511" stroke="#b75511" stroke-width="1.51"/><path d="M888 1372l280 4-100-6z" fill="#b15914" stroke="#b15914" stroke-width="1.51"/><path d="M481 1225l41 89 83-151z" fill="#c98136" stroke="#c98136" stroke-width="1.51"/><path d="M389 1243l133 71-41-89z" fill="#c7833e" stroke="#c7833e" stroke-width="1.51"/><path d="M186 571L79 649l122-24z" fill="#ffc36d" stroke="#ffc36d" stroke-width="1.51"/><path d="M99 378l87 193 34-191z" fill="#ffd57b" stroke="#ffd57b" stroke-width="1.51"/><path d="M99 378l121 2-20-140z" fill="#ffde88" stroke="#ffde88" stroke-width="1.51"/><path d="M63 292l36 86 101-138z" fill="#ffe291" stroke="#ffe291" stroke-width="1.51"/><path d="M1168 1376l112-34-94-170z" fill="#b7510e" stroke="#b7510e" stroke-width="1.51"/><path d="M180 946l39 104 122-12z" fill="#ea9c54" stroke="#ea9c54" stroke-width="1.51"/><path d="M1425 1227l100-52-102-125z" fill="#be4906" stroke="#be4906" stroke-width="1.51"/><path d="M1462 1342l63-167-100 52z" fill="#b14406" stroke="#b14406" stroke-width="1.51"/><path d="M99 378L70 546l116 25z" fill="#ffd17a" stroke="#ffd17a" stroke-width="1.51"/><path d="M247 1203l142 40-48-205z" fill="#d58f4c" stroke="#d58f4c" stroke-width="1.51"/><path d="M79 649l6 122 116-146z" fill="#ffbe6c" stroke="#ffbe6c" stroke-width="1.51"/><path d="M180 946l-56 7 95 97z" fill="#eea15b" stroke="#eea15b" stroke-width="1.51"/><path d="M-20 625L85 771l-6-122z" fill="#ffc072" stroke="#ffc072" stroke-width="1.51"/><path d="M1561-133l-157-7 41 110z" fill="#f4aa6f" stroke="#f4aa6f" stroke-width="1.51"/><path d="M1445-30l-41-110-141 42z" fill="#f9af70" stroke="#f9af70" stroke-width="1.51"/><path d="M1263-98l141-42-262 1z" fill="#feb677" stroke="#feb677" stroke-width="1.51"/><path d="M1142-139l594-42-1012 32z" fill="#ffbb7c" stroke="#ffbb7c" stroke-width="1.51"/><path d="M1723 247l-66-126-52 152z" fill="#e19349" stroke="#e19349" stroke-width="1.51"/><path d="M1523 3l38-136-116 103z" fill="#f1a769" stroke="#f1a769" stroke-width="1.51"/><path d="M1704 426l19-179-118 26z" fill="#df8b39" stroke="#df8b39" stroke-width="1.51"/><path d="M1869 290l-146-43-19 179z" fill="#d78737" stroke="#d78737" stroke-width="1.51"/><path d="M1868 703l-74-163-116 140z" fill="#d06614" stroke="#d06614" stroke-width="1.51"/><path d="M1797 802l-119-122 16 102z" fill="#d05d0d" stroke="#d05d0d" stroke-width="1.51"/><path d="M219 1050l28 153 94-165z" fill="#df9651" stroke="#df9651" stroke-width="1.51"/><path d="M85 771l39 182 56-7z" fill="#f5aa62" stroke="#f5aa62" stroke-width="1.51"/><path d="M482-121H374l75 132z" fill="#ffeaa6" stroke="#ffeaa6" stroke-width="1.51"/><path d="M193-142l181 21h108z" fill="#ffefb4" stroke="#ffefb4" stroke-width="1.51"/><path d="M54 126l146 114 32-125z" fill="#ffeba3" stroke="#ffeba3" stroke-width="1.51"/><path d="M54 126l9 166 137-52z" fill="#ffe99f" stroke="#ffe99f" stroke-width="1.51"/><path d="M99 378L-8 563l78-17z" fill="#ffd37e" stroke="#ffd37e" stroke-width="1.51"/><path d="M1661 938l136-136-103-20z" fill="#cc5409" stroke="#cc5409" stroke-width="1.51"/><path d="M1804 956l-7-154-136 136z" fill="#c44e07" stroke="#c44e07" stroke-width="1.51"/><path d="M117 1100l130 103-28-153z" fill="#dd9756" stroke="#dd9756" stroke-width="1.51"/><path d="M389 1243l-60 103 193-32z" fill="#c18343" stroke="#c18343" stroke-width="1.51"/><path d="M1794 540l45-100-135-14z" fill="#d47923" stroke="#d47923" stroke-width="1.51"/><path d="M1664-34l-99 142 92 13z" fill="#e79d5a" stroke="#e79d5a" stroke-width="1.51"/><path d="M1954 515l-115-75-45 100z" fill="#cc7220" stroke="#cc7220" stroke-width="1.51"/><path d="M-84 364l76 199L99 378z" fill="#ffda87" stroke="#ffda87" stroke-width="1.51"/><path d="M70 546l-78 17 87 86z" fill="#ffca77" stroke="#ffca77" stroke-width="1.51"/><path d="M85 771L-57 925l181 28z" fill="#f7ae67" stroke="#f7ae67" stroke-width="1.51"/><path d="M1671 1185l-139-108-7 98z" fill="#b94303" stroke="#b94303" stroke-width="1.51"/><path d="M1671 1185l39-102-178-6z" fill="#b74203" stroke="#b74203" stroke-width="1.51"/><path d="M1280 1342h182l-37-115z" fill="#ae4609" stroke="#ae4609" stroke-width="1.51"/><path d="M1168 1376l294-34h-182z" fill="#ac490c" stroke="#ac490c" stroke-width="1.51"/><path d="M-8 563l-12 62 99 24z" fill="#ffc877" stroke="#ffc877" stroke-width="1.51"/><path d="M374-121L185-29l165 62z" fill="#ffefae" stroke="#ffefae" stroke-width="1.51"/><path d="M1664-34l-7 155 181-94z" fill="#df9a5c" stroke="#df9a5c" stroke-width="1.51"/><path d="M1664-34l-103-99-38 136z" fill="#eda367" stroke="#eda367" stroke-width="1.51"/><path d="M1929 765l-61-62-71 99z" fill="#c4560d" stroke="#c4560d" stroke-width="1.51"/><path d="M1797 802l71-99-190-23z" fill="#cd5d0f" stroke="#cd5d0f" stroke-width="1.51"/><path d="M124 953l-7 147 102-50z" fill="#e89d5b" stroke="#e89d5b" stroke-width="1.51"/><path d="M-65 1077l182 23 7-147z" fill="#e8a061" stroke="#e8a061" stroke-width="1.51"/><path d="M1838 140l-181-19 66 126z" fill="#db934e" stroke="#db934e" stroke-width="1.51"/><path d="M1710 1083l94-127-143-18z" fill="#bf4603" stroke="#bf4603" stroke-width="1.51"/><path d="M1570 1361l101-176-146-10z" fill="#ac3d04" stroke="#ac3d04" stroke-width="1.51"/><path d="M1710 1083l143-11-49-116z" fill="#b44104" stroke="#b44104" stroke-width="1.51"/><path d="M253 1309l136-66-142-40z" fill="#c98b4d" stroke="#c98b4d" stroke-width="1.51"/><path d="M253 1309l76 37 60-103z" fill="#c2874b" stroke="#c2874b" stroke-width="1.51"/><path d="M522 1314l-193 32 389 18z" fill="#ba7c37" stroke="#ba7c37" stroke-width="1.51"/><path d="M718 1364l-389-18 559 26z" fill="#b6742a" stroke="#b6742a" stroke-width="1.51"/><path d="M185-29L54 126l178-11z" fill="#fff0ac" stroke="#fff0ac" stroke-width="1.51"/><path d="M63 292l-147 72 183 14z" fill="#ffe291" stroke="#ffe291" stroke-width="1.51"/><path d="M-8 563l-182 7 170 55z" fill="#ffcb7f" stroke="#ffcb7f" stroke-width="1.51"/><path d="M1839 440l30-150-165 136z" fill="#d2802c" stroke="#d2802c" stroke-width="1.51"/><path d="M1950 392l-81-102-30 150z" fill="#cb7e2c" stroke="#cb7e2c" stroke-width="1.51"/><path d="M110 1242l143 67-6-106z" fill="#ca8e53" stroke="#ca8e53" stroke-width="1.51"/><path d="M54 126l-82 123 91 43z" fill="#ffeba4" stroke="#ffeba4" stroke-width="1.51"/><path d="M-20 625l-48 179 153-33z" fill="#ffbc72" stroke="#ffbc72" stroke-width="1.51"/><path d="M-192 775l124 29 48-179z" fill="#ffbd78" stroke="#ffbd78" stroke-width="1.51"/><path d="M1869 290l-31-150-115 107z" fill="#d38c46" stroke="#d38c46" stroke-width="1.51"/><path d="M1868 703l70-66-144-97z" fill="#ca6414" stroke="#ca6414" stroke-width="1.51"/><path d="M1929 765l9-128-70 66z" fill="#c25b11" stroke="#c25b11" stroke-width="1.51"/><path d="M1462 1342l108 19-45-186z" fill="#a93f06" stroke="#a93f06" stroke-width="1.51"/><path d="M1948 953l-151-151 7 154z" fill="#bc4907" stroke="#bc4907" stroke-width="1.51"/><path d="M1168 1376l402-15-108-19z" fill="#a54309" stroke="#a54309" stroke-width="1.51"/><path d="M54 126l-126 42 44 81z" fill="#ffefad" stroke="#ffefad" stroke-width="1.51"/><path d="M185-29L85-38 54 126z" fill="#fff4b5" stroke="#fff4b5" stroke-width="1.51"/><path d="M374-121l-181-21-8 113z" fill="#fff2b8" stroke="#fff2b8" stroke-width="1.51"/><path d="M724-149l-531 7 289 21z" fill="#ffeaa8" stroke="#ffeaa8" stroke-width="1.51"/><path d="M1948 953l-19-188-132 37z" fill="#bd4e09" stroke="#bd4e09" stroke-width="1.51"/><path d="M1853 1072l-143 11 161 82z" fill="#a93c04" stroke="#a93c04" stroke-width="1.51"/><path d="M-28 249l-56 115 147-72z" fill="#ffe69b" stroke="#ffe69b" stroke-width="1.51"/><path d="M1938 637l16-122-160 25z" fill="#c86a19" stroke="#c86a19" stroke-width="1.51"/><path d="M1869 290l68-126-99-24z" fill="#ce8b49" stroke="#ce8b49" stroke-width="1.51"/><path d="M2102 539l-148-24-16 122z" fill="#bf661a" stroke="#bf661a" stroke-width="1.51"/><path d="M193-142L85-38l100 9z" fill="#fff5bb" stroke="#fff5bb" stroke-width="1.51"/><path d="M-215 263l53 109 78-8z" fill="#ffe59f" stroke="#ffe59f" stroke-width="1.51"/><path d="M-68 804l11 121L85 771z" fill="#fbb26e" stroke="#fbb26e" stroke-width="1.51"/><path d="M117 1100l-7 142 137-39z" fill="#d49357" stroke="#d49357" stroke-width="1.51"/><path d="M1954 515l-4-123-111 48z" fill="#c87524" stroke="#c87524" stroke-width="1.51"/><path d="M-39 1200l149 42 7-142z" fill="#d5965e" stroke="#d5965e" stroke-width="1.51"/><path d="M253 1309l-149 1 225 36z" fill="#c08951" stroke="#c08951" stroke-width="1.51"/><path d="M1871 1165l-161-82-39 102z" fill="#aa3c04" stroke="#aa3c04" stroke-width="1.51"/><path d="M1570 1361l117-51-16-125z" fill="#a13a05" stroke="#a13a05" stroke-width="1.51"/><path d="M1937 164l-99-137v113z" fill="#d09052" stroke="#d09052" stroke-width="1.51"/><path d="M1838 140V27l-181 94z" fill="#d99455" stroke="#d99455" stroke-width="1.51"/><path d="M1664-34l72-147-175 48z" fill="#e7a16c" stroke="#e7a16c" stroke-width="1.51"/><path d="M-42 18l-30 150 126-42z" fill="#fff2b5" stroke="#fff2b5" stroke-width="1.51"/><path d="M1853 1072l95-119-144 3z" fill="#b34104" stroke="#b34104" stroke-width="1.51"/><path d="M2138 662l-36-123-164 98z" fill="#b95f16" stroke="#b95f16" stroke-width="1.51"/><path d="M2004 1073l-56-120-95 119z" fill="#a83c04" stroke="#a83c04" stroke-width="1.51"/><path d="M1990 282l-53-118-68 126z" fill="#c98542" stroke="#c98542" stroke-width="1.51"/><path d="M110 1242l-6 68 149-1z" fill="#c58d56" stroke="#c58d56" stroke-width="1.51"/><path d="M-39 1200l143 110 6-68z" fill="#cb925d" stroke="#cb925d" stroke-width="1.51"/><path d="M-215 263l131 101 56-115z" fill="#ffe7a3" stroke="#ffe7a3" stroke-width="1.51"/><path d="M-84 364l-106 206 182-7z" fill="#ffd588" stroke="#ffd588" stroke-width="1.51"/><path d="M-144 929l79 148 8-152z" fill="#f1a76d" stroke="#f1a76d" stroke-width="1.51"/><path d="M-145-179l228 35 110 2z" fill="#fffacc" stroke="#fffacc" stroke-width="1.51"/><path d="M193-142l-110-2 2 106z" fill="#fff7c2" stroke="#fff7c2" stroke-width="1.51"/><path d="M85-38L-42 18l96 108z" fill="#fff5b9" stroke="#fff5b9" stroke-width="1.51"/><path d="M-144 929l87-4-11-121z" fill="#f8af71" stroke="#f8af71" stroke-width="1.51"/><path d="M-57 925l-8 152 189-124z" fill="#efa566" stroke="#efa566" stroke-width="1.51"/><path d="M1950 392l40-110-121 8z" fill="#c78036" stroke="#c78036" stroke-width="1.51"/><path d="M2094 372l-104-90-40 110z" fill="#c07b31" stroke="#c07b31" stroke-width="1.51"/><path d="M2094 372l-144 20 4 123z" fill="#c07426" stroke="#c07426" stroke-width="1.51"/><path d="M-162 372l-28 198 106-206z" fill="#ffdc91" stroke="#ffdc91" stroke-width="1.51"/><path d="M1810-174L1664-34l174 61z" fill="#dc9a65" stroke="#dc9a65" stroke-width="1.51"/><path d="M1810-174l-74-7-72 147z" fill="#e09d6c" stroke="#e09d6c" stroke-width="1.51"/><path d="M1561-133l175-48-332 41z" fill="#f0a671" stroke="#f0a671" stroke-width="1.51"/><path d="M1404-140l332-41-594 42z" fill="#f7ae75" stroke="#f7ae75" stroke-width="1.51"/><path d="M724-149l-869-30 338 37z" fill="#fff3bd" stroke="#fff3bd" stroke-width="1.51"/><path d="M-67-98l25 116L85-38z" fill="#fff8c3" stroke="#fff8c3" stroke-width="1.51"/><path d="M-72 168l-143 95 187-14z" fill="#ffecad" stroke="#ffecad" stroke-width="1.51"/><path d="M1687 1310l184-145-200 20z" fill="#a13804" stroke="#a13804" stroke-width="1.51"/><path d="M-192 775l48 154 76-125z" fill="#fcb476" stroke="#fcb476" stroke-width="1.51"/><path d="M-219 632l27 143 172-150z" fill="#ffc37f" stroke="#ffc37f" stroke-width="1.51"/><path d="M-215 263l-4 369 29-62z" fill="#ffd791" stroke="#ffd791" stroke-width="1.51"/><path d="M-190 570l-29 62 199-7z" fill="#ffc982" stroke="#ffc982" stroke-width="1.51"/><path d="M-65 1077l26 123 156-100z" fill="#dd9b63" stroke="#dd9b63" stroke-width="1.51"/><path d="M-221 1199l182 1-26-123z" fill="#da9a69" stroke="#da9a69" stroke-width="1.51"/><path d="M2002 21l-164 6 99 137z" fill="#cc8f56" stroke="#cc8f56" stroke-width="1.51"/><path d="M1979-103l-169-71 28 201z" fill="#d39665" stroke="#d39665" stroke-width="1.51"/><path d="M1871 1165l59 11-77-104z" fill="#a03704" stroke="#a03704" stroke-width="1.51"/><path d="M1845 1365l85-189-59-11z" fill="#933305" stroke="#933305" stroke-width="1.51"/><path d="M-162 372l-53-109 25 307z" fill="#ffe097" stroke="#ffe097" stroke-width="1.51"/><path d="M-171 119l-44 144 143-95z" fill="#fff0b6" stroke="#fff0b6" stroke-width="1.51"/><path d="M2112 759l-183 6 158 178z" fill="#b04b0c" stroke="#b04b0c" stroke-width="1.51"/><path d="M2112 759l-174-122-9 128z" fill="#ba5711" stroke="#ba5711" stroke-width="1.51"/><path d="M2141 133L2002 21l-65 143z" fill="#c18a51" stroke="#c18a51" stroke-width="1.51"/><path d="M-42 18l-129 101 99 49z" fill="#fff3ba" stroke="#fff3ba" stroke-width="1.51"/><path d="M-178-45l7 164L-42 18z" fill="#fff7c5" stroke="#fff7c5" stroke-width="1.51"/><path d="M2102 539l-8-167-140 143z" fill="#bb6e22" stroke="#bb6e22" stroke-width="1.51"/><path d="M1930 1176l74-103-151-1z" fill="#9f3804" stroke="#9f3804" stroke-width="1.51"/><path d="M83-144L-67-98 85-38z" fill="#fff8c7" stroke="#fff8c7" stroke-width="1.51"/><path d="M-221 1199l47-140-18-284z" fill="#efa673" stroke="#efa673" stroke-width="1.51"/><path d="M-192 775l18 284 30-130z" fill="#f6ad75" stroke="#f6ad75" stroke-width="1.51"/><path d="M-144 929l-30 130 109 18z" fill="#eda46d" stroke="#eda46d" stroke-width="1.51"/><path d="M2087 943l-158-178 19 188z" fill="#b04709" stroke="#b04709" stroke-width="1.51"/><path d="M2114 259l-177-95 53 118z" fill="#c18343" stroke="#c18343" stroke-width="1.51"/><path d="M1687 1310l158 55 26-200z" fill="#953305" stroke="#953305" stroke-width="1.51"/><path d="M2088 1232l54-185-138 26z" fill="#913405" stroke="#913405" stroke-width="1.51"/><path d="M1570 1361l275 4-158-55z" fill="#943505" stroke="#943505" stroke-width="1.51"/><path d="M1168 1376l677-11-275-4z" fill="#9f3c07" stroke="#9f3c07" stroke-width="1.51"/><path d="M2102 539l36 123-44-290z" fill="#b5661e" stroke="#b5661e" stroke-width="1.51"/><path d="M2112 759l26-97-200-25z" fill="#b65812" stroke="#b65812" stroke-width="1.51"/><path d="M2112 759l30 288-4-385z" fill="#a8480c" stroke="#a8480c" stroke-width="1.51"/><path d="M2004 1073l83-130-139 10z" fill="#a63d05" stroke="#a63d05" stroke-width="1.51"/><path d="M2142 1047l-55-104-83 130z" fill="#9d3a05" stroke="#9d3a05" stroke-width="1.51"/><path d="M2094 372l20-113-124 23z" fill="#bb7c38" stroke="#bb7c38" stroke-width="1.51"/><path d="M2138 662l-24-403-20 113z" fill="#b57026" stroke="#b57026" stroke-width="1.51"/><path d="M-155 1307l67 8 49-115z" fill="#c99367" stroke="#c99367" stroke-width="1.51"/><path d="M-39 1200l-49 115 192-5z" fill="#c89261" stroke="#c89261" stroke-width="1.51"/><path d="M104 1310l-192 5 417 31z" fill="#c08c58" stroke="#c08c58" stroke-width="1.51"/><path d="M2112-26l-133-77 23 124z" fill="#c38f5f" stroke="#c38f5f" stroke-width="1.51"/><path d="M2002 21l-23-124-141 130z" fill="#cb925f" stroke="#cb925f" stroke-width="1.51"/><path d="M-67-98l-111 53 136 63z" fill="#fff9ca" stroke="#fff9ca" stroke-width="1.51"/><path d="M-171 119l-7-164-37 308z" fill="#fff4c0" stroke="#fff4c0" stroke-width="1.51"/><path d="M2114 259l27-126-204 31z" fill="#bc8449" stroke="#bc8449" stroke-width="1.51"/><path d="M2138 662l3-529-27 126z" fill="#b47630" stroke="#b47630" stroke-width="1.51"/><path d="M-221 1199l66 108 116-107z" fill="#cf956a" stroke="#cf956a" stroke-width="1.51"/><path d="M-221 1199l156-122-109-18z" fill="#e09e6d" stroke="#e09e6d" stroke-width="1.51"/><path d="M-219 632l-2 567 29-424z" fill="#fab27a" stroke="#fab27a" stroke-width="1.51"/><path d="M-67-98l-78-81-33 134z" fill="#fffbd3" stroke="#fffbd3" stroke-width="1.51"/><path d="M83-144l-228-35 78 81z" fill="#fffbd1" stroke="#fffbd1" stroke-width="1.51"/><path d="M1736-181l-1881 2 869 30z" fill="#ffd991" stroke="#ffd991" stroke-width="1.51"/><path d="M2087 943l55 104-30-288z" fill="#a34109" stroke="#a34109" stroke-width="1.51"/><path d="M2138 662l4 385-1-914z" fill="#b15c16" stroke="#b15c16" stroke-width="1.51"/><path d="M2088 1232l-84-159-74 103z" fill="#923305" stroke="#923305" stroke-width="1.51"/><path d="M1845 1365l154-40-69-149z" fill="#893006" stroke="#893006" stroke-width="1.51"/><path d="M2141 133l-29-159-110 47z" fill="#bc8a57" stroke="#bc8a57" stroke-width="1.51"/><path d="M1999 1325l89-93-158-56z" fill="#882f06" stroke="#882f06" stroke-width="1.51"/><path d="M2088 1232l37 82 17-267z" fill="#842e06" stroke="#842e06" stroke-width="1.51"/><path d="M1999 1325l126-11-37-82z" fill="#7c2c06" stroke="#7c2c06" stroke-width="1.51"/><path d="M1845 1365l280-51-126 11z" fill="#7e2c06" stroke="#7e2c06" stroke-width="1.51"/><path d="M2141 133l1-313-30 154z" fill="#b88b5e" stroke="#b88b5e" stroke-width="1.51"/><path d="M2112-26l30-154-163 77z" fill="#bf8f65" stroke="#bf8f65" stroke-width="1.51"/><path d="M1979-103l163-77-332 6z" fill="#c9936b" stroke="#c9936b" stroke-width="1.51"/><path d="M1810-174l332-6-406-1z" fill="#d2976e" stroke="#d2976e" stroke-width="1.51"/><path d="M2142 1047V-180l-1 313z" fill="#b47733" stroke="#b47733" stroke-width="1.51"/></svg>