<?xml version="1.0" encoding="UTF-8"?>
<svg width="24px" height="24px" viewBox="0 0 24 24" version="1.1" xmlns="http://www.w3.org/2000/svg" xmlns:xlink="http://www.w3.org/1999/xlink">
    <!-- Generator: Sketch 52.5 (67469) - http://www.bohemiancoding.com/sketch -->
    <title>RSS</title>
    <desc>Created with Sketch.</desc>
    <g id="Post" stroke="none" stroke-width="1" fill="none" fill-rule="evenodd">
        <g id="12.9″-iPad-Pro" transform="translate(-791.000000, -160.000000)" fill="#FFFFFF" fill-rule="nonzero">
            <g id="header">
                <path d="M797,164 C797,163.166667 796.708333,162.458333 796.125,161.875 C795.541667,161.291667 794.833333,161 794,161 C793.166667,161 792.458333,161.291667 791.875,161.875 C791.291667,162.458333 791,163.166667 791,164 C791,164.833333 791.291667,165.541667 791.875,166.125 C792.458333,166.708333 793.166667,167 794,167 C794.833333,167 795.541667,166.708333 796.125,166.125 C796.708333,165.541667 797,164.833333 797,164 Z M805.996812,161.155134 C806.019129,160.842634 805.924283,160.574777 805.712274,160.351562 C805.511424,160.117188 805.249203,160 804.925611,160 L802.666047,160 C802.387088,160 802.147184,160.092076 801.946334,160.276228 C801.745484,160.460379 801.6339,160.691964 801.611583,160.970982 C801.3661,163.526786 800.336743,165.711496 798.523512,167.525112 C796.710282,169.338728 794.526036,170.368304 791.970776,170.613839 C791.691817,170.636161 791.460282,170.747768 791.276169,170.948661 C791.092056,171.149554 791,171.389509 791,171.668527 L791,173.928571 C791,174.252232 791.117163,174.514509 791.351488,174.715402 C791.54118,174.905134 791.781084,175 792.071201,175 L792.154888,175 C793.940223,174.854911 795.64745,174.405692 797.276567,173.652344 C798.905685,172.898996 800.350691,171.886161 801.611583,170.613839 C802.883634,169.352679 803.896254,167.907366 804.649442,166.277902 C805.40263,164.648438 805.851753,162.940848 805.996812,161.155134 Z M814.996901,161.142045 C815.019626,160.835227 814.917366,160.568182 814.690123,160.340909 C814.485604,160.113636 814.224274,160 813.906133,160 L811.468948,160 C811.173531,160 810.920723,160.099432 810.710523,160.298295 C810.500323,160.497159 810.389542,160.738636 810.378179,161.022727 C810.241833,163.465909 809.668044,165.786932 808.656811,167.985795 C807.645578,170.184659 806.330407,172.09375 804.711298,173.713068 C803.092189,175.332386 801.183344,176.647727 798.984764,177.659091 C796.786185,178.670455 794.465462,179.25 792.022595,179.397727 C791.738541,179.409091 791.497095,179.519886 791.298257,179.730114 C791.099419,179.940341 791,180.1875 791,180.471591 L791,182.909091 C791,183.227273 791.113622,183.488636 791.340865,183.693182 C791.545384,183.897727 791.795352,184 792.090768,184 L792.141898,184 C795.118786,183.852273 797.96785,183.170455 800.68909,181.954545 C803.410329,180.738636 805.827631,179.068182 807.940994,176.943182 C810.06572,174.829545 811.735959,172.411932 812.951711,169.690341 C814.167463,166.96875 814.849193,164.119318 814.996901,161.142045 Z" id="RSS" transform="translate(803.000000, 172.000000) scale(1, -1) translate(-803.000000, -172.000000) "></path>
            </g>
        </g>
    </g>
</svg>