<svg width="36" height="32" xmlns="http://www.w3.org/2000/svg"><path d="M31.846 8.768c.014.326.019.654.019.98 0 10.012-7.32 21.553-20.708 21.553-4.113 0-7.935-1.254-11.157-3.405 3.849.485 7.725-.642 10.775-3.133-3.114-.06-5.847-2.174-6.8-5.26a7.157 7.157 0 0 0 3.287-.13c-3.395-.718-5.836-3.824-5.837-7.43v-.095c.98.569 2.105.91 3.297.95C1.52 10.576.532 6.143 2.47 2.682c3.695 4.734 9.148 7.612 15.002 7.917a7.947 7.947 0 0 1-.187-1.729c0-4.18 3.257-7.57 7.277-7.57 2.094 0 3.985.917 5.314 2.39a14.266 14.266 0 0 0 4.62-1.84c-.543 1.755-1.68 3.244-3.2 4.191a14.117 14.117 0 0 0 4.18-1.19 15.044 15.044 0 0 1-3.63 3.917z" fill="#FFF" stroke="#979797" fill-rule="evenodd"/></svg>