<svg width="36" height="30" xmlns="http://www.w3.org/2000/svg"><path d="M31.846 7.467c.014.326.019.654.019.98C31.865 18.46 24.545 30 11.157 30 7.044 30 3.222 28.746 0 26.596c3.849.484 7.725-.643 10.775-3.134-3.114-.06-5.847-2.174-6.8-5.26a7.157 7.157 0 0 0 3.287-.13c-3.395-.718-5.836-3.824-5.837-7.43v-.095c.98.569 2.105.91 3.297.95C1.52 9.276.532 4.842 2.47 1.381c3.695 4.734 9.148 7.612 15.002 7.917a7.947 7.947 0 0 1-.187-1.729C17.285 3.39 20.542 0 24.562 0c2.094 0 3.985.916 5.314 2.39a14.266 14.266 0 0 0 4.62-1.84c-.543 1.754-1.68 3.243-3.2 4.19a14.117 14.117 0 0 0 4.18-1.19 15.044 15.044 0 0 1-3.63 3.917z" fill="#1DA1F2" fill-rule="evenodd"/></svg>