<svg width="58" height="59" xmlns="http://www.w3.org/2000/svg"><g fill="none" fill-rule="nonzero"><path d="M29.264.714c-6.932 0-13.508 2.194-18.238 6.542a2.853 2.853 0 0 1-3.964-.083L3.837 3.986a1.912 1.912 0 0 0-1.35-.56A1.919 1.919 0 0 0 .573 5.342v48.072c0 1.061.863 1.916 1.914 1.916.525 0 1-.215 1.35-.555l3.225-3.188a2.804 2.804 0 0 1 2.021-.852c.756 0 1.436.287 1.943.77 4.73 4.344 11.307 6.537 18.238 6.537 15.822 0 28.658-12.84 28.658-28.658 0-15.834-12.836-28.67-28.658-28.67zM46.279 44.4c0 .66-.531 1.189-1.199 1.189a1.19 1.19 0 0 1-.84-.344l-2.004-1.984a1.756 1.756 0 0 0-1.262-.533c-.465 0-.893.178-1.207.48-2.965 2.721-7.072 4.084-11.406 4.084-9.887 0-17.91-8.021-17.91-17.908 0-9.902 8.023-17.921 17.91-17.921 4.334 0 8.441 1.37 11.406 4.089.703.65 1.795.627 2.469-.053l2.004-1.989a1.17 1.17 0 0 1 .84-.354c.668 0 1.199.54 1.199 1.195V44.4z" fill="#A5333A"/><path d="M46.279 44.4c0 .66-.531 1.189-1.199 1.189a1.19 1.19 0 0 1-.84-.344l-2.004-1.984a1.756 1.756 0 0 0-1.262-.533c-.465 0-.893.178-1.207.48-2.965 2.721-7.072 4.084-11.406 4.084-9.887 0-17.91-8.021-17.91-17.908 0-9.902 8.023-17.921 17.91-17.921 4.334 0 8.441 1.37 11.406 4.089.703.65 1.795.627 2.469-.053l2.004-1.989a1.17 1.17 0 0 1 .84-.354c.668 0 1.199.54 1.199 1.195V44.4zM28.812 21.766c-3.957 0-7.164 3.407-7.164 7.615 0 4.199 3.207 7.609 7.164 7.609s7.166-3.41 7.166-7.609c.001-4.209-3.208-7.615-7.166-7.615z" fill="#75C1DC"/></g></svg>