<svg xmlns="http://www.w3.org/2000/svg" width="316.39" height="106.33"><path d="M192.834 104.278a44.027 44.027 0 0 1-25.733-10.797 20.751 20.751 0 0 1-.947-.867 2.579 2.579 0 0 0-.351-.31l-.199-.142-.882.976c-2.662 2.945-6.31 5.622-10.241 7.514-6.369 3.066-13.398 4.204-20.768 3.364-10.026-1.143-17.579-5.97-21.334-13.639-1.656-3.38-2.617-7.321-2.882-11.824-.047-.804-.076-9.222-.076-22.379l-.001-21.09H94.487l.02-7.826.019-7.826 7.446-.02 7.447-.018.02-8.394.019-8.394H129.847l.02 8.394.019 8.394 11.312.019 11.312.019.02 7.826.019 7.826h-22.664v20.181c0 21.983-.017 21.042.424 23.01.896 3.996 3.264 7.197 6.538 8.839 2.816 1.411 6.204 1.627 10.116.644 2.966-.746 6.078-2.365 8.58-4.465.841-.707 1.856-1.67 1.856-1.763 0-.042-.268-.61-.597-1.262-2.567-5.096-4.075-10.384-4.604-16.154-.155-1.686-.177-5.52-.041-7.049.569-6.397 2.146-11.816 5.04-17.319 4.768-9.061 12.93-16.427 22.401-20.215 1.08-.432 2.827-1.059 2.86-1.026.012.011-.133.276-.321.588-2.84 4.696-5.276 14.368-5.717 22.693l-.084 1.586-.513.726c-2.624 3.708-4.3 8.095-4.908 12.853-.192 1.504-.192 5.315 0 6.822.648 5.086 2.461 9.62 5.418 13.55 3.752 4.984 9.123 8.434 14.947 9.6 1.912.383 2.374.423 4.85.42 2.001 0 2.456-.027 3.374-.171 3.337-.526 6.068-1.513 8.982-3.247.52-.31 1.03-.627 1.132-.705l.184-.14-.412-.174c-.873-.368-3.87-1.913-4.846-2.498-5.878-3.527-10.68-8.132-14.42-13.83-8.439-12.856-9.492-29.385-2.752-43.211.428-.88 1.06-2.09 1.404-2.691.682-1.19 2.402-3.822 2.628-4.02.353-.311 5.65-.43 8.365-.187 6.69.597 12.777 2.525 18.472 5.851 9.983 5.832 17.332 15.395 20.328 26.451 1.145 4.225 1.58 7.824 1.502 12.4-.066 3.84-.425 6.54-1.35 10.144-3.208 12.49-11.904 23.044-23.674 28.731-4.958 2.395-10.225 3.799-15.914 4.24-1.137.089-5.086.083-6.3-.009zm27.607-36.38c.097-.35.294-1.218.436-1.927 1.068-5.295.59-10.968-1.34-15.917-2.876-7.377-8.57-12.968-15.739-15.456-.431-.15-.827-.272-.88-.272-.193 0-.857 3.062-1.117 5.154-.132 1.06-.132 5.073 0 6.14.691 5.616 2.622 10.321 5.95 14.502.718.901 2.482 2.724 3.35 3.461 2.48 2.105 5.026 3.571 8.11 4.67.5.179.942.315.982.305.04-.011.151-.308.248-.66zm50.755 36.383c-10.298-.362-19.79-2.414-28.64-6.19-1.3-.555-5.393-2.554-5.658-2.763-.113-.09-.05-.213.631-1.237 2.408-3.618 5.359-8.632 7.28-12.373.498-.97.92-1.763.936-1.763.017 0 .466.174.998.387 6.814 2.722 14.316 4.733 21.016 5.633 2.912.391 3.931.456 7.239.458 2.562 0 3.3-.022 4.206-.135 3.439-.432 6.134-1.184 8.52-2.38 3.119-1.56 5.04-3.56 5.704-5.933.205-.733.19-3.015-.026-4.019-.562-2.605-2.155-4.502-5.443-6.482-1.03-.62-2.973-1.592-4.396-2.2-2.284-.974-4.178-1.637-10.612-3.712-15.051-4.854-22.63-9.323-26.99-15.918-2.521-3.81-3.82-8.687-3.821-14.337 0-6.227 1.85-11.698 5.505-16.281.845-1.06 2.998-3.221 4.084-4.1 4.342-3.516 9.89-6.065 16.371-7.523 8.636-1.943 18.106-1.863 30.66.258 4.354.736 10.74 2.085 10.818 2.285.035.092-1.032 27.321-1.073 27.365-.012.013-15.44-.264-15.65-.281-.016 0-.006-3.068.026-6.815l.055-6.812-.859-.162c-4.491-.843-10.86-.986-15.45-.348-6.527.91-11.22 3.401-12.98 6.896-1.146 2.273-1.181 4.74-.099 6.872 2.07 4.074 8.534 7.717 20.621 11.621 9.205 2.974 15.311 5.604 19.728 8.499 5.262 3.448 8.346 7.338 9.906 12.494 1.23 4.062 1.42 9.563.494 14.22-2.238 11.245-11.082 19.466-24.746 23.004-5.628 1.458-11.42 2.017-18.355 1.772zM1.486 96.29v-6.254h8.47l.346-.966c1.528-4.27 26.126-73.805 26.126-73.855 0-.035-2.38-.073-5.287-.084l-5.287-.02V2.68l21.23-.019 21.23-.019L83.81 46.32l15.497 43.678 3.996.02 3.995.02-.019 6.233-.02 6.234H69.135l-.02-6.234-.019-6.235H73c2.215 0 3.904-.029 3.904-.067 0-.052-3.946-11.234-4.637-13.14l-.159-.436-19.259.019-19.26.019-2.398 6.783-2.399 6.784 4.16.02 4.159.02V102.543H1.485v-6.254zm65.109-35.398c0-.021-3.023-8.557-6.717-18.968a23195.088 23195.088 0 0 1-6.873-19.385l-.156-.454-.093.227c-.05.125-3.129 8.806-6.84 19.29a21008.48 21008.48 0 0 1-6.8 19.196c-.05.126.634.132 13.713.132 7.571 0 13.766-.017 13.766-.038z" fill="#0066a1"/></svg>