<svg width="61" height="57" xmlns="http://www.w3.org/2000/svg"><g fill="none" fill-rule="evenodd"><path d="M18.803 24.338c1.456 0 10.912 4.174 10.912 19.166 0 7.165-2.41 13.138-3.835 13.138-.627 0-.866-.628-.866-1.833 0-2.652.935-5.002.935-10.665 0-10.932-4.502-15.344-6.519-17.826-.595-.735-1.046-1.214-1.046-1.645 0-.176.125-.335.419-.335m23.834.335c0 .431-.452.91-1.047 1.645-2.015 2.482-6.516 6.894-6.516 17.826 0 5.663.931 8.013.931 10.665 0 1.205-.236 1.833-.863 1.833-1.424 0-3.837-5.973-3.837-13.138 0-14.992 9.458-19.166 10.917-19.166.29 0 .415.159.415.335" fill="#0982C6" fill-rule="nonzero"/><path d="M27.058 27.339c0 1.957 1.545 3.542 3.451 3.542 1.911 0 3.458-1.585 3.458-3.542 0-1.96-1.547-3.544-3.458-3.544-1.906 0-3.451 1.584-3.451 3.544" fill="#F8971F"/><path d="M12.574 21.738c-1.805-.816-3.156-2.453-3.376-4.039 1.34-.882 3.456-.95 5.263-.134 1.89.855 2.332 2.302 2.343 3.572-.961.833-2.338 1.457-4.23.6m5.179-9.54c-1.162-1.785-1.433-4.045-.714-5.607 1.721-.022 3.675 1.145 4.835 2.929 1.214 1.869.775 3.431.047 4.586-1.353.195-2.957-.038-4.168-1.908m2.687 9.452c-1.432-1.214-2.236-3.055-2.024-4.559 1.45-.455 3.398.035 4.83 1.248 1.5 1.274 1.524 2.704 1.203 3.866-1.094.505-2.509.715-4.009-.555m4.381-4.569c-.616-1.991-.268-4.196.828-5.48 1.629.439 3.159 2.067 3.775 4.059.645 2.086-.186 3.441-1.181 4.336-1.325-.177-2.78-.827-3.422-2.915m-7.545 14.547c-1.426.277-2.93-.132-3.738-.988.425-1.099 1.67-2.04 3.1-2.317 1.495-.29 2.373.388 2.92 1.146-.223.91-.782 1.866-2.282 2.159m-3.77-4.225c-1.623-.177-3.105-1.11-3.686-2.3.82-1.037 2.469-1.635 4.095-1.46 1.703.186 2.421 1.206 2.758 2.2-.544.903-1.463 1.745-3.167 1.56m-.145-12.068c-1.275-1.081-1.99-2.716-1.8-4.054 1.288-.406 3.02.032 4.294 1.109 1.331 1.133 1.356 2.404 1.07 3.438-.974.45-2.231.636-3.564-.493m8.69-8.576c-.516-1.66-.223-3.499.688-4.568 1.36.368 2.636 1.724 3.15 3.382.537 1.74-.159 2.867-.986 3.617-1.107-.15-2.314-.691-2.853-2.431M.7 49.833c0 .045.029.081.086.081.053 0 .15-.044.253-.081 5.102-1.83 12.635-4.074 23.207-4.76.013-.095.077-.566.077-.929 0-.765-.092-1.564-.115-1.696-10.834.994-18.31 4.135-23.223 7.154-.199.123-.285.152-.285.23M44.22 21.138c.011-1.27.452-2.717 2.342-3.572 1.804-.816 3.924-.748 5.263.134-.221 1.586-1.571 3.223-3.375 4.039-1.894.856-3.268.232-4.23-.601M39.1 14.105c-.726-1.155-1.165-2.717.05-4.586 1.158-1.784 3.112-2.951 4.833-2.929.717 1.562.445 3.822-.713 5.607-1.21 1.87-2.818 2.103-4.17 1.908m-2.53 8.099c-.318-1.162-.295-2.592 1.205-3.866 1.434-1.213 3.38-1.703 4.832-1.248.21 1.504-.594 3.345-2.027 4.559-1.497 1.27-2.916 1.06-4.01.555m-3.793-2.209c-.994-.895-1.824-2.25-1.18-4.336.613-1.992 2.148-3.62 3.776-4.059 1.096 1.284 1.444 3.489.827 5.48-.645 2.088-2.095 2.738-3.423 2.915m8.686 9.473c.549-.758 1.424-1.436 2.921-1.146 1.43.277 2.674 1.218 3.1 2.317-.806.856-2.311 1.265-3.741.988-1.498-.293-2.059-1.25-2.28-2.16m2.885-3.624c.337-.995 1.056-2.015 2.759-2.2 1.626-.176 3.272.422 4.093 1.46-.58 1.189-2.06 2.122-3.685 2.299-1.705.185-2.626-.657-3.167-1.56m-.253-10.015c-.286-1.034-.263-2.305 1.072-3.438 1.275-1.077 3.006-1.515 4.293-1.109.19 1.338-.527 2.973-1.8 4.054-1.333 1.129-2.592.944-3.565.493M36.12 9.189c-.829-.75-1.523-1.877-.985-3.617.514-1.658 1.79-3.014 3.144-3.382.918 1.069 1.206 2.908.695 4.568-.54 1.74-1.748 2.281-2.854 2.431m23.916 40.413c-4.91-3.02-12.387-6.16-23.221-7.154a14.01 14.01 0 0 0-.114 1.696c0 .363.063.834.075.929 10.571.686 18.103 2.93 23.208 4.76.105.037.203.081.25.081.06 0 .09-.036.09-.081 0-.079-.09-.108-.288-.231M30.511 10.934c-1.403-.654-2.786-1.867-2.786-4.391 0-2.41 1.138-4.728 2.786-5.768 1.65 1.04 2.787 3.358 2.787 5.768 0 2.524-1.38 3.737-2.787 4.391" fill="#56B948" fill-rule="nonzero"/></g></svg>