<svg xmlns="http://www.w3.org/2000/svg" width="1000" height="1000"><path d="M24.537 442.15L442.15 24.537c32.049-32.05 83.651-32.05 115.7 0L975.464 442.15c32.048 32.049 32.048 83.651 0 115.7L557.85 975.463c-32.049 32.05-83.651 32.05-115.7 0L24.537 557.85c-32.05-32.049-32.05-83.651 0-115.7z" fill="#ff6d00"/><path d="M84.462 496.945c0-22.372 13.985-40.304 19.06-45.811l36.658-36.825c12.833-12.636 31.683-20.941 48.529-20.941 22.204 0 36.257 10.306 55.425 29.426l57.85 57.85c7.509 7.662 8.711 11.98 8.778 18.14 0 11.045-9.198 23.575-23.24 23.575-9.998 0-16.557-8.318-24.327-15.716l-58.978-58.978c-3.118-3.304-8.29-7.566-16.01-7.566-6.486 0-12.822 4.057-19.06 10.283l-31.224 31.223c-6.632 7.457-10.485 19.06 0 29.552l66.858 66.858c6.63 6.768 8.84 11.396 8.84 18.245 0 11.792-10.216 23.491-23.49 23.49-7.485.001-13.673-4.746-22.572-13.876l-63.41-63.41c-11.822-12.243-19.687-27.398-19.687-45.518zM345.03 236.262c-17.131-.037-34.332 7.707-50.033 23.407l-29.903 29.903c-34.018 34.019-26.476 72.83-5.56 93.747L363.23 487.014c13.82 13.82 25.104 10.417 33.472 2.048 9.68-9.679 11.455-21.14-1.112-33.707l-22.88-22.939s9.258-.977 17.087-9.129l36.574-36.516c22.454-22.453 33.687-61.815 2.458-93.044l-34.175-34.175c-15.436-15.436-32.492-23.254-49.624-23.29zm.527 46.99c5.549.19 11.617 3.132 18.609 10.124l27.797 27.796c13.157 13.157 10.935 25.229 0 36.165l-29.435 29.434c-12.368 12.368-25.693 10.005-35.58.118l-30.43-30.372c-8.98-8.98-12.145-21.444 0-33.59l29.611-29.551c6.068-6.068 12.294-10.369 19.428-10.124zM499.461 81.89c-17.132-.037-34.333 7.707-50.033 23.407L419.525 135.2c-34.019 34.019-26.477 72.83-5.56 93.747l39.325 39.383c25.7 25.7 63.648 27.875 90.938.585l36.515-36.515c22.454-22.454 33.746-61.816 2.517-93.045l-34.175-34.175c-15.436-15.436-32.492-23.254-49.624-23.29zm.468 46.99c5.549.19 11.676 3.074 18.668 10.065l27.737 27.797c13.158 13.157 10.936 25.228 0 36.164L516.9 232.4c-12.368 12.367-25.692 10.004-35.58.117l-30.37-30.43c-8.982-8.98-12.146-21.386 0-33.531l29.551-29.61c6.068-6.069 12.294-10.31 19.428-10.066z" fill="#fff"/></svg>